ISO-10303-21;
HEADER;
/* Generated by software containing ST-Developer
 * from STEP Tools, Inc. (www.steptools.com) 
 */

FILE_DESCRIPTION(
/* description */ (''),
/* implementation_level */ '2;1');

FILE_NAME(
/* name */ 'bottom.step',
/* time_stamp */ '2026-05-16T15:14:19+03:00',
/* author */ (''),
/* organization */ (''),
/* preprocessor_version */ 'ST-DEVELOPER v20.1',
/* originating_system */ 'Autodesk Translation Framework v15.8.0.0',
/* authorisation */ '');

FILE_SCHEMA (('AUTOMOTIVE_DESIGN { 1 0 10303 214 3 1 1 }'));
ENDSEC;

DATA;
#10=MECHANICAL_DESIGN_GEOMETRIC_PRESENTATION_REPRESENTATION('',(#17),#2323);
#11=ITEM_DEFINED_TRANSFORMATION($,$,#1367,#1511);
#12=(
REPRESENTATION_RELATIONSHIP($,$,#2334,#2333)
REPRESENTATION_RELATIONSHIP_WITH_TRANSFORMATION(#11)
SHAPE_REPRESENTATION_RELATIONSHIP()
);
#13=CONTEXT_DEPENDENT_SHAPE_REPRESENTATION(#12,#2332);
#14=NEXT_ASSEMBLY_USAGE_OCCURRENCE(
'Open CASCADE STEP translator 7.8 1:1',
'Open CASCADE STEP translator 7.8 1:1',
'Open CASCADE STEP translator 7.8 1:1',#2336,#2337,
'Open CASCADE STEP translator 7.8 1:1');
#15=SHAPE_REPRESENTATION_RELATIONSHIP('SRR','None',#2334,#16);
#16=ADVANCED_BREP_SHAPE_REPRESENTATION('',(#18),#2322);
#17=STYLED_ITEM('',(#2348),#18);
#18=MANIFOLD_SOLID_BREP('Body1',#1353);
#19=FACE_BOUND('',#146,.T.);
#20=FACE_BOUND('',#147,.T.);
#21=FACE_BOUND('',#148,.T.);
#22=FACE_BOUND('',#149,.T.);
#23=FACE_BOUND('',#150,.T.);
#24=FACE_BOUND('',#151,.T.);
#25=FACE_BOUND('',#152,.T.);
#26=FACE_BOUND('',#153,.T.);
#27=FACE_BOUND('',#154,.T.);
#28=FACE_BOUND('',#155,.T.);
#29=FACE_BOUND('',#174,.T.);
#30=FACE_BOUND('',#198,.T.);
#31=FACE_BOUND('',#199,.T.);
#32=FACE_BOUND('',#200,.T.);
#33=FACE_BOUND('',#201,.T.);
#34=FACE_BOUND('',#202,.T.);
#35=FACE_BOUND('',#203,.T.);
#36=PLANE('',#1371);
#37=PLANE('',#1375);
#38=PLANE('',#1406);
#39=PLANE('',#1407);
#40=PLANE('',#1410);
#41=PLANE('',#1411);
#42=PLANE('',#1414);
#43=PLANE('',#1417);
#44=PLANE('',#1420);
#45=PLANE('',#1421);
#46=PLANE('',#1424);
#47=PLANE('',#1427);
#48=PLANE('',#1430);
#49=PLANE('',#1450);
#50=PLANE('',#1460);
#51=PLANE('',#1461);
#52=PLANE('',#1462);
#53=PLANE('',#1463);
#54=PLANE('',#1464);
#55=PLANE('',#1465);
#56=PLANE('',#1466);
#57=PLANE('',#1467);
#58=PLANE('',#1468);
#59=PLANE('',#1469);
#60=PLANE('',#1470);
#61=PLANE('',#1478);
#62=PLANE('',#1496);
#63=PLANE('',#1499);
#64=PLANE('',#1502);
#65=PLANE('',#1505);
#66=PLANE('',#1506);
#67=PLANE('',#1507);
#68=PLANE('',#1508);
#69=PLANE('',#1509);
#70=PLANE('',#1510);
#71=FACE_OUTER_BOUND('',#142,.T.);
#72=FACE_OUTER_BOUND('',#143,.T.);
#73=FACE_OUTER_BOUND('',#144,.T.);
#74=FACE_OUTER_BOUND('',#145,.T.);
#75=FACE_OUTER_BOUND('',#156,.T.);
#76=FACE_OUTER_BOUND('',#157,.T.);
#77=FACE_OUTER_BOUND('',#158,.T.);
#78=FACE_OUTER_BOUND('',#159,.T.);
#79=FACE_OUTER_BOUND('',#160,.T.);
#80=FACE_OUTER_BOUND('',#161,.T.);
#81=FACE_OUTER_BOUND('',#162,.T.);
#82=FACE_OUTER_BOUND('',#163,.T.);
#83=FACE_OUTER_BOUND('',#164,.T.);
#84=FACE_OUTER_BOUND('',#165,.T.);
#85=FACE_OUTER_BOUND('',#166,.T.);
#86=FACE_OUTER_BOUND('',#167,.T.);
#87=FACE_OUTER_BOUND('',#168,.T.);
#88=FACE_OUTER_BOUND('',#169,.T.);
#89=FACE_OUTER_BOUND('',#170,.T.);
#90=FACE_OUTER_BOUND('',#171,.T.);
#91=FACE_OUTER_BOUND('',#172,.T.);
#92=FACE_OUTER_BOUND('',#173,.T.);
#93=FACE_OUTER_BOUND('',#175,.T.);
#94=FACE_OUTER_BOUND('',#176,.T.);
#95=FACE_OUTER_BOUND('',#177,.T.);
#96=FACE_OUTER_BOUND('',#178,.T.);
#97=FACE_OUTER_BOUND('',#179,.T.);
#98=FACE_OUTER_BOUND('',#180,.T.);
#99=FACE_OUTER_BOUND('',#181,.T.);
#100=FACE_OUTER_BOUND('',#182,.T.);
#101=FACE_OUTER_BOUND('',#183,.T.);
#102=FACE_OUTER_BOUND('',#184,.T.);
#103=FACE_OUTER_BOUND('',#185,.T.);
#104=FACE_OUTER_BOUND('',#186,.T.);
#105=FACE_OUTER_BOUND('',#187,.T.);
#106=FACE_OUTER_BOUND('',#188,.T.);
#107=FACE_OUTER_BOUND('',#189,.T.);
#108=FACE_OUTER_BOUND('',#190,.T.);
#109=FACE_OUTER_BOUND('',#191,.T.);
#110=FACE_OUTER_BOUND('',#192,.T.);
#111=FACE_OUTER_BOUND('',#193,.T.);
#112=FACE_OUTER_BOUND('',#194,.T.);
#113=FACE_OUTER_BOUND('',#195,.T.);
#114=FACE_OUTER_BOUND('',#196,.T.);
#115=FACE_OUTER_BOUND('',#197,.T.);
#116=FACE_OUTER_BOUND('',#204,.T.);
#117=FACE_OUTER_BOUND('',#205,.T.);
#118=FACE_OUTER_BOUND('',#206,.T.);
#119=FACE_OUTER_BOUND('',#207,.T.);
#120=FACE_OUTER_BOUND('',#208,.T.);
#121=FACE_OUTER_BOUND('',#209,.T.);
#122=FACE_OUTER_BOUND('',#210,.T.);
#123=FACE_OUTER_BOUND('',#211,.T.);
#124=FACE_OUTER_BOUND('',#212,.T.);
#125=FACE_OUTER_BOUND('',#213,.T.);
#126=FACE_OUTER_BOUND('',#214,.T.);
#127=FACE_OUTER_BOUND('',#215,.T.);
#128=FACE_OUTER_BOUND('',#216,.T.);
#129=FACE_OUTER_BOUND('',#217,.T.);
#130=FACE_OUTER_BOUND('',#218,.T.);
#131=FACE_OUTER_BOUND('',#219,.T.);
#132=FACE_OUTER_BOUND('',#220,.T.);
#133=FACE_OUTER_BOUND('',#221,.T.);
#134=FACE_OUTER_BOUND('',#222,.T.);
#135=FACE_OUTER_BOUND('',#223,.T.);
#136=FACE_OUTER_BOUND('',#224,.T.);
#137=FACE_OUTER_BOUND('',#225,.T.);
#138=FACE_OUTER_BOUND('',#226,.T.);
#139=FACE_OUTER_BOUND('',#227,.T.);
#140=FACE_OUTER_BOUND('',#228,.T.);
#141=FACE_OUTER_BOUND('',#229,.T.);
#142=EDGE_LOOP('',(#862,#863,#864,#865));
#143=EDGE_LOOP('',(#866,#867,#868,#869));
#144=EDGE_LOOP('',(#870,#871,#872,#873));
#145=EDGE_LOOP('',(#874,#875,#876,#877,#878,#879,#880,#881,#882,#883,#884,
#885,#886,#887,#888,#889,#890,#891,#892,#893,#894,#895,#896,#897,#898,#899,
#900,#901,#902,#903,#904,#905,#906,#907,#908,#909,#910,#911));
#146=EDGE_LOOP('',(#912));
#147=EDGE_LOOP('',(#913));
#148=EDGE_LOOP('',(#914));
#149=EDGE_LOOP('',(#915));
#150=EDGE_LOOP('',(#916));
#151=EDGE_LOOP('',(#917));
#152=EDGE_LOOP('',(#918));
#153=EDGE_LOOP('',(#919));
#154=EDGE_LOOP('',(#920));
#155=EDGE_LOOP('',(#921));
#156=EDGE_LOOP('',(#922,#923,#924,#925));
#157=EDGE_LOOP('',(#926,#927,#928,#929));
#158=EDGE_LOOP('',(#930,#931,#932,#933));
#159=EDGE_LOOP('',(#934,#935,#936,#937));
#160=EDGE_LOOP('',(#938,#939,#940,#941,#942,#943,#944,#945,#946,#947,#948,
#949));
#161=EDGE_LOOP('',(#950,#951,#952,#953));
#162=EDGE_LOOP('',(#954,#955,#956,#957));
#163=EDGE_LOOP('',(#958,#959,#960,#961));
#164=EDGE_LOOP('',(#962,#963,#964,#965));
#165=EDGE_LOOP('',(#966,#967,#968,#969));
#166=EDGE_LOOP('',(#970,#971,#972,#973));
#167=EDGE_LOOP('',(#974,#975,#976,#977));
#168=EDGE_LOOP('',(#978,#979,#980,#981));
#169=EDGE_LOOP('',(#982,#983,#984,#985));
#170=EDGE_LOOP('',(#986,#987,#988,#989));
#171=EDGE_LOOP('',(#990,#991,#992,#993,#994,#995,#996,#997));
#172=EDGE_LOOP('',(#998,#999,#1000,#1001));
#173=EDGE_LOOP('',(#1002,#1003,#1004,#1005,#1006,#1007,#1008,#1009,#1010,
#1011,#1012,#1013,#1014,#1015,#1016,#1017,#1018,#1019));
#174=EDGE_LOOP('',(#1020,#1021,#1022,#1023,#1024,#1025,#1026,#1027));
#175=EDGE_LOOP('',(#1028,#1029,#1030,#1031));
#176=EDGE_LOOP('',(#1032,#1033,#1034,#1035));
#177=EDGE_LOOP('',(#1036,#1037,#1038,#1039));
#178=EDGE_LOOP('',(#1040,#1041,#1042,#1043));
#179=EDGE_LOOP('',(#1044,#1045,#1046,#1047));
#180=EDGE_LOOP('',(#1048,#1049,#1050,#1051));
#181=EDGE_LOOP('',(#1052,#1053,#1054,#1055));
#182=EDGE_LOOP('',(#1056,#1057,#1058,#1059));
#183=EDGE_LOOP('',(#1060,#1061,#1062,#1063));
#184=EDGE_LOOP('',(#1064,#1065,#1066,#1067));
#185=EDGE_LOOP('',(#1068,#1069,#1070,#1071));
#186=EDGE_LOOP('',(#1072,#1073,#1074,#1075));
#187=EDGE_LOOP('',(#1076,#1077,#1078,#1079));
#188=EDGE_LOOP('',(#1080,#1081,#1082,#1083));
#189=EDGE_LOOP('',(#1084,#1085,#1086,#1087));
#190=EDGE_LOOP('',(#1088,#1089,#1090,#1091));
#191=EDGE_LOOP('',(#1092,#1093,#1094,#1095));
#192=EDGE_LOOP('',(#1096,#1097,#1098,#1099));
#193=EDGE_LOOP('',(#1100,#1101,#1102,#1103));
#194=EDGE_LOOP('',(#1104,#1105,#1106,#1107));
#195=EDGE_LOOP('',(#1108,#1109,#1110,#1111));
#196=EDGE_LOOP('',(#1112,#1113,#1114,#1115,#1116,#1117,#1118,#1119,#1120,
#1121,#1122,#1123,#1124,#1125,#1126,#1127,#1128,#1129,#1130,#1131,#1132,
#1133,#1134,#1135,#1136,#1137,#1138,#1139));
#197=EDGE_LOOP('',(#1140,#1141,#1142,#1143));
#198=EDGE_LOOP('',(#1144));
#199=EDGE_LOOP('',(#1145));
#200=EDGE_LOOP('',(#1146));
#201=EDGE_LOOP('',(#1147));
#202=EDGE_LOOP('',(#1148));
#203=EDGE_LOOP('',(#1149));
#204=EDGE_LOOP('',(#1150,#1151,#1152,#1153));
#205=EDGE_LOOP('',(#1154,#1155,#1156,#1157));
#206=EDGE_LOOP('',(#1158,#1159,#1160,#1161));
#207=EDGE_LOOP('',(#1162,#1163,#1164,#1165));
#208=EDGE_LOOP('',(#1166,#1167,#1168,#1169));
#209=EDGE_LOOP('',(#1170,#1171,#1172,#1173));
#210=EDGE_LOOP('',(#1174,#1175,#1176,#1177));
#211=EDGE_LOOP('',(#1178,#1179,#1180,#1181));
#212=EDGE_LOOP('',(#1182,#1183,#1184,#1185));
#213=EDGE_LOOP('',(#1186,#1187,#1188,#1189));
#214=EDGE_LOOP('',(#1190,#1191,#1192,#1193));
#215=EDGE_LOOP('',(#1194,#1195,#1196,#1197));
#216=EDGE_LOOP('',(#1198,#1199,#1200,#1201));
#217=EDGE_LOOP('',(#1202,#1203,#1204,#1205));
#218=EDGE_LOOP('',(#1206,#1207,#1208,#1209));
#219=EDGE_LOOP('',(#1210,#1211,#1212,#1213));
#220=EDGE_LOOP('',(#1214,#1215,#1216,#1217));
#221=EDGE_LOOP('',(#1218,#1219,#1220,#1221));
#222=EDGE_LOOP('',(#1222,#1223,#1224,#1225));
#223=EDGE_LOOP('',(#1226,#1227,#1228,#1229));
#224=EDGE_LOOP('',(#1230,#1231,#1232,#1233));
#225=EDGE_LOOP('',(#1234));
#226=EDGE_LOOP('',(#1235));
#227=EDGE_LOOP('',(#1236));
#228=EDGE_LOOP('',(#1237));
#229=EDGE_LOOP('',(#1238,#1239,#1240,#1241,#1242,#1243,#1244,#1245));
#230=LINE('',#1931,#350);
#231=LINE('',#1934,#351);
#232=LINE('',#1937,#352);
#233=LINE('',#1939,#353);
#234=LINE('',#1940,#354);
#235=LINE('',#1945,#355);
#236=LINE('',#1949,#356);
#237=LINE('',#1953,#357);
#238=LINE('',#1955,#358);
#239=LINE('',#1957,#359);
#240=LINE('',#1961,#360);
#241=LINE('',#1965,#361);
#242=LINE('',#1973,#362);
#243=LINE('',#1983,#363);
#244=LINE('',#1993,#364);
#245=LINE('',#2001,#365);
#246=LINE('',#2005,#366);
#247=LINE('',#2009,#367);
#248=LINE('',#2011,#368);
#249=LINE('',#2013,#369);
#250=LINE('',#2016,#370);
#251=LINE('',#2039,#371);
#252=LINE('',#2040,#372);
#253=LINE('',#2043,#373);
#254=LINE('',#2044,#374);
#255=LINE('',#2047,#375);
#256=LINE('',#2050,#376);
#257=LINE('',#2053,#377);
#258=LINE('',#2054,#378);
#259=LINE('',#2057,#379);
#260=LINE('',#2059,#380);
#261=LINE('',#2060,#381);
#262=LINE('',#2062,#382);
#263=LINE('',#2064,#383);
#264=LINE('',#2066,#384);
#265=LINE('',#2068,#385);
#266=LINE('',#2070,#386);
#267=LINE('',#2071,#387);
#268=LINE('',#2074,#388);
#269=LINE('',#2078,#389);
#270=LINE('',#2079,#390);
#271=LINE('',#2083,#391);
#272=LINE('',#2086,#392);
#273=LINE('',#2087,#393);
#274=LINE('',#2090,#394);
#275=LINE('',#2093,#395);
#276=LINE('',#2096,#396);
#277=LINE('',#2097,#397);
#278=LINE('',#2100,#398);
#279=LINE('',#2101,#399);
#280=LINE('',#2105,#400);
#281=LINE('',#2108,#401);
#282=LINE('',#2109,#402);
#283=LINE('',#2115,#403);
#284=LINE('',#2117,#404);
#285=LINE('',#2119,#405);
#286=LINE('',#2121,#406);
#287=LINE('',#2123,#407);
#288=LINE('',#2125,#408);
#289=LINE('',#2127,#409);
#290=LINE('',#2128,#410);
#291=LINE('',#2133,#411);
#292=LINE('',#2134,#412);
#293=LINE('',#2141,#413);
#294=LINE('',#2151,#414);
#295=LINE('',#2164,#415);
#296=LINE('',#2170,#416);
#297=LINE('',#2174,#417);
#298=LINE('',#2178,#418);
#299=LINE('',#2181,#419);
#300=LINE('',#2183,#420);
#301=LINE('',#2185,#421);
#302=LINE('',#2187,#422);
#303=LINE('',#2189,#423);
#304=LINE('',#2191,#424);
#305=LINE('',#2193,#425);
#306=LINE('',#2195,#426);
#307=LINE('',#2197,#427);
#308=LINE('',#2198,#428);
#309=LINE('',#2201,#429);
#310=LINE('',#2203,#430);
#311=LINE('',#2205,#431);
#312=LINE('',#2207,#432);
#313=LINE('',#2209,#433);
#314=LINE('',#2212,#434);
#315=LINE('',#2214,#435);
#316=LINE('',#2215,#436);
#317=LINE('',#2219,#437);
#318=LINE('',#2220,#438);
#319=LINE('',#2221,#439);
#320=LINE('',#2223,#440);
#321=LINE('',#2224,#441);
#322=LINE('',#2226,#442);
#323=LINE('',#2228,#443);
#324=LINE('',#2229,#444);
#325=LINE('',#2231,#445);
#326=LINE('',#2233,#446);
#327=LINE('',#2250,#447);
#328=LINE('',#2253,#448);
#329=LINE('',#2256,#449);
#330=LINE('',#2259,#450);
#331=LINE('',#2261,#451);
#332=LINE('',#2264,#452);
#333=LINE('',#2268,#453);
#334=LINE('',#2271,#454);
#335=LINE('',#2273,#455);
#336=LINE('',#2276,#456);
#337=LINE('',#2279,#457);
#338=LINE('',#2282,#458);
#339=LINE('',#2285,#459);
#340=LINE('',#2288,#460);
#341=LINE('',#2289,#461);
#342=LINE('',#2293,#462);
#343=LINE('',#2296,#463);
#344=LINE('',#2297,#464);
#345=LINE('',#2301,#465);
#346=LINE('',#2304,#466);
#347=LINE('',#2305,#467);
#348=LINE('',#2309,#468);
#349=LINE('',#2311,#469);
#350=VECTOR('',#1520,10.);
#351=VECTOR('',#1523,10.);
#352=VECTOR('',#1526,10.);
#353=VECTOR('',#1527,10.);
#354=VECTOR('',#1528,10.);
#355=VECTOR('',#1533,10.);
#356=VECTOR('',#1538,1.);
#357=VECTOR('',#1541,1.);
#358=VECTOR('',#1542,1.);
#359=VECTOR('',#1543,1.);
#360=VECTOR('',#1546,1.);
#361=VECTOR('',#1549,1.);
#362=VECTOR('',#1556,1.);
#363=VECTOR('',#1565,1.);
#364=VECTOR('',#1574,1.);
#365=VECTOR('',#1581,1.);
#366=VECTOR('',#1584,1.);
#367=VECTOR('',#1587,1.);
#368=VECTOR('',#1588,1.);
#369=VECTOR('',#1589,1.);
#370=VECTOR('',#1592,1.);
#371=VECTOR('',#1615,10.);
#372=VECTOR('',#1616,10.);
#373=VECTOR('',#1619,10.);
#374=VECTOR('',#1620,10.);
#375=VECTOR('',#1623,10.);
#376=VECTOR('',#1626,10.);
#377=VECTOR('',#1629,10.);
#378=VECTOR('',#1630,10.);
#379=VECTOR('',#1633,1.6);
#380=VECTOR('',#1634,1.);
#381=VECTOR('',#1635,1.6);
#382=VECTOR('',#1636,10.);
#383=VECTOR('',#1637,10.);
#384=VECTOR('',#1638,10.);
#385=VECTOR('',#1639,10.);
#386=VECTOR('',#1640,10.);
#387=VECTOR('',#1641,10.);
#388=VECTOR('',#1644,10.);
#389=VECTOR('',#1649,1.);
#390=VECTOR('',#1650,10.);
#391=VECTOR('',#1655,10.);
#392=VECTOR('',#1658,10.);
#393=VECTOR('',#1659,1.);
#394=VECTOR('',#1662,10.);
#395=VECTOR('',#1665,10.);
#396=VECTOR('',#1668,10.);
#397=VECTOR('',#1669,10.);
#398=VECTOR('',#1672,1.);
#399=VECTOR('',#1673,10.);
#400=VECTOR('',#1678,10.);
#401=VECTOR('',#1681,10.);
#402=VECTOR('',#1682,1.);
#403=VECTOR('',#1689,10.);
#404=VECTOR('',#1690,1.);
#405=VECTOR('',#1691,1.);
#406=VECTOR('',#1692,1.);
#407=VECTOR('',#1693,10.);
#408=VECTOR('',#1694,10.);
#409=VECTOR('',#1695,10.);
#410=VECTOR('',#1696,10.);
#411=VECTOR('',#1701,1.);
#412=VECTOR('',#1702,1.);
#413=VECTOR('',#1709,1.);
#414=VECTOR('',#1718,1.);
#415=VECTOR('',#1731,1.);
#416=VECTOR('',#1736,1.);
#417=VECTOR('',#1739,1.);
#418=VECTOR('',#1742,1.);
#419=VECTOR('',#1745,1.);
#420=VECTOR('',#1748,1.59999999999999);
#421=VECTOR('',#1751,1.59999999999999);
#422=VECTOR('',#1754,1.59999999999999);
#423=VECTOR('',#1757,1.59999999999999);
#424=VECTOR('',#1760,1.);
#425=VECTOR('',#1763,1.);
#426=VECTOR('',#1766,1.6);
#427=VECTOR('',#1769,1.6);
#428=VECTOR('',#1770,1.6);
#429=VECTOR('',#1775,1.6);
#430=VECTOR('',#1778,1.59999999999999);
#431=VECTOR('',#1781,1.59999999999999);
#432=VECTOR('',#1784,1.);
#433=VECTOR('',#1787,10.);
#434=VECTOR('',#1790,1.);
#435=VECTOR('',#1791,10.);
#436=VECTOR('',#1792,10.);
#437=VECTOR('',#1795,10.);
#438=VECTOR('',#1796,10.);
#439=VECTOR('',#1797,10.);
#440=VECTOR('',#1800,1.);
#441=VECTOR('',#1801,10.);
#442=VECTOR('',#1804,10.);
#443=VECTOR('',#1807,10.);
#444=VECTOR('',#1808,10.);
#445=VECTOR('',#1811,10.);
#446=VECTOR('',#1814,10.);
#447=VECTOR('',#1835,1.);
#448=VECTOR('',#1840,1.1);
#449=VECTOR('',#1843,1.);
#450=VECTOR('',#1848,1.1);
#451=VECTOR('',#1851,1.1);
#452=VECTOR('',#1854,1.);
#453=VECTOR('',#1859,1.);
#454=VECTOR('',#1864,1.1);
#455=VECTOR('',#1867,1.1);
#456=VECTOR('',#1870,1.);
#457=VECTOR('',#1875,1.1);
#458=VECTOR('',#1878,1.);
#459=VECTOR('',#1881,1.);
#460=VECTOR('',#1884,1.);
#461=VECTOR('',#1885,1.);
#462=VECTOR('',#1890,1.);
#463=VECTOR('',#1893,1.);
#464=VECTOR('',#1894,1.);
#465=VECTOR('',#1899,1.);
#466=VECTOR('',#1902,1.);
#467=VECTOR('',#1903,1.);
#468=VECTOR('',#1908,1.);
#469=VECTOR('',#1911,1.);
#470=CIRCLE('',#1369,2.);
#471=CIRCLE('',#1370,2.);
#472=CIRCLE('',#1373,2.);
#473=CIRCLE('',#1374,2.);
#474=CIRCLE('',#1376,2.);
#475=CIRCLE('',#1377,2.);
#476=CIRCLE('',#1378,2.);
#477=CIRCLE('',#1379,1.6);
#478=CIRCLE('',#1380,2.3);
#479=CIRCLE('',#1381,1.59999999999999);
#480=CIRCLE('',#1382,6.);
#481=CIRCLE('',#1383,1.6);
#482=CIRCLE('',#1384,2.3);
#483=CIRCLE('',#1385,1.59999999999999);
#484=CIRCLE('',#1386,1.59999999999999);
#485=CIRCLE('',#1387,2.3);
#486=CIRCLE('',#1388,1.6);
#487=CIRCLE('',#1389,6.);
#488=CIRCLE('',#1390,1.6);
#489=CIRCLE('',#1391,2.3);
#490=CIRCLE('',#1392,1.6);
#491=CIRCLE('',#1393,2.);
#492=CIRCLE('',#1394,2.);
#493=CIRCLE('',#1395,2.);
#494=CIRCLE('',#1396,2.);
#495=CIRCLE('',#1397,1.25);
#496=CIRCLE('',#1398,2.);
#497=CIRCLE('',#1399,2.);
#498=CIRCLE('',#1400,1.25);
#499=CIRCLE('',#1401,1.25);
#500=CIRCLE('',#1402,2.);
#501=CIRCLE('',#1403,2.);
#502=CIRCLE('',#1404,1.25);
#503=CIRCLE('',#1405,2.);
#504=CIRCLE('',#1409,2.);
#505=CIRCLE('',#1413,2.);
#506=CIRCLE('',#1416,2.);
#507=CIRCLE('',#1419,2.);
#508=CIRCLE('',#1423,2.);
#509=CIRCLE('',#1426,2.);
#510=CIRCLE('',#1429,1.6);
#511=CIRCLE('',#1431,2.3);
#512=CIRCLE('',#1432,1.59999999999999);
#513=CIRCLE('',#1433,1.59999999999999);
#514=CIRCLE('',#1434,2.3);
#515=CIRCLE('',#1435,1.6);
#516=CIRCLE('',#1436,6.);
#517=CIRCLE('',#1437,1.59999999999999);
#518=CIRCLE('',#1438,2.3);
#519=CIRCLE('',#1439,1.6);
#520=CIRCLE('',#1440,1.6);
#521=CIRCLE('',#1441,2.3);
#522=CIRCLE('',#1442,1.6);
#523=CIRCLE('',#1443,6.);
#524=CIRCLE('',#1444,1.);
#525=CIRCLE('',#1445,1.);
#526=CIRCLE('',#1446,1.);
#527=CIRCLE('',#1447,1.);
#528=CIRCLE('',#1471,2.);
#529=CIRCLE('',#1472,2.);
#530=CIRCLE('',#1473,2.);
#531=CIRCLE('',#1474,2.);
#532=CIRCLE('',#1475,2.);
#533=CIRCLE('',#1476,2.);
#534=CIRCLE('',#1482,1.25);
#535=CIRCLE('',#1486,1.25);
#536=CIRCLE('',#1488,1.25);
#537=CIRCLE('',#1492,1.25);
#538=CIRCLE('',#1495,1.);
#539=CIRCLE('',#1498,1.);
#540=CIRCLE('',#1501,1.);
#541=CIRCLE('',#1504,1.);
#542=VERTEX_POINT('',#1927);
#543=VERTEX_POINT('',#1928);
#544=VERTEX_POINT('',#1930);
#545=VERTEX_POINT('',#1932);
#546=VERTEX_POINT('',#1936);
#547=VERTEX_POINT('',#1938);
#548=VERTEX_POINT('',#1942);
#549=VERTEX_POINT('',#1944);
#550=VERTEX_POINT('',#1948);
#551=VERTEX_POINT('',#1950);
#552=VERTEX_POINT('',#1952);
#553=VERTEX_POINT('',#1954);
#554=VERTEX_POINT('',#1956);
#555=VERTEX_POINT('',#1958);
#556=VERTEX_POINT('',#1960);
#557=VERTEX_POINT('',#1962);
#558=VERTEX_POINT('',#1964);
#559=VERTEX_POINT('',#1966);
#560=VERTEX_POINT('',#1968);
#561=VERTEX_POINT('',#1970);
#562=VERTEX_POINT('',#1972);
#563=VERTEX_POINT('',#1974);
#564=VERTEX_POINT('',#1976);
#565=VERTEX_POINT('',#1978);
#566=VERTEX_POINT('',#1980);
#567=VERTEX_POINT('',#1982);
#568=VERTEX_POINT('',#1984);
#569=VERTEX_POINT('',#1986);
#570=VERTEX_POINT('',#1988);
#571=VERTEX_POINT('',#1990);
#572=VERTEX_POINT('',#1992);
#573=VERTEX_POINT('',#1994);
#574=VERTEX_POINT('',#1996);
#575=VERTEX_POINT('',#1998);
#576=VERTEX_POINT('',#2000);
#577=VERTEX_POINT('',#2002);
#578=VERTEX_POINT('',#2004);
#579=VERTEX_POINT('',#2006);
#580=VERTEX_POINT('',#2008);
#581=VERTEX_POINT('',#2010);
#582=VERTEX_POINT('',#2012);
#583=VERTEX_POINT('',#2014);
#584=VERTEX_POINT('',#2017);
#585=VERTEX_POINT('',#2019);
#586=VERTEX_POINT('',#2021);
#587=VERTEX_POINT('',#2023);
#588=VERTEX_POINT('',#2025);
#589=VERTEX_POINT('',#2027);
#590=VERTEX_POINT('',#2029);
#591=VERTEX_POINT('',#2031);
#592=VERTEX_POINT('',#2033);
#593=VERTEX_POINT('',#2035);
#594=VERTEX_POINT('',#2038);
#595=VERTEX_POINT('',#2042);
#596=VERTEX_POINT('',#2046);
#597=VERTEX_POINT('',#2048);
#598=VERTEX_POINT('',#2052);
#599=VERTEX_POINT('',#2056);
#600=VERTEX_POINT('',#2058);
#601=VERTEX_POINT('',#2061);
#602=VERTEX_POINT('',#2063);
#603=VERTEX_POINT('',#2065);
#604=VERTEX_POINT('',#2067);
#605=VERTEX_POINT('',#2069);
#606=VERTEX_POINT('',#2073);
#607=VERTEX_POINT('',#2077);
#608=VERTEX_POINT('',#2081);
#609=VERTEX_POINT('',#2085);
#610=VERTEX_POINT('',#2089);
#611=VERTEX_POINT('',#2091);
#612=VERTEX_POINT('',#2095);
#613=VERTEX_POINT('',#2099);
#614=VERTEX_POINT('',#2103);
#615=VERTEX_POINT('',#2107);
#616=VERTEX_POINT('',#2113);
#617=VERTEX_POINT('',#2114);
#618=VERTEX_POINT('',#2116);
#619=VERTEX_POINT('',#2118);
#620=VERTEX_POINT('',#2120);
#621=VERTEX_POINT('',#2122);
#622=VERTEX_POINT('',#2124);
#623=VERTEX_POINT('',#2126);
#624=VERTEX_POINT('',#2130);
#625=VERTEX_POINT('',#2131);
#626=VERTEX_POINT('',#2136);
#627=VERTEX_POINT('',#2138);
#628=VERTEX_POINT('',#2140);
#629=VERTEX_POINT('',#2142);
#630=VERTEX_POINT('',#2144);
#631=VERTEX_POINT('',#2146);
#632=VERTEX_POINT('',#2148);
#633=VERTEX_POINT('',#2150);
#634=VERTEX_POINT('',#2152);
#635=VERTEX_POINT('',#2154);
#636=VERTEX_POINT('',#2157);
#637=VERTEX_POINT('',#2159);
#638=VERTEX_POINT('',#2161);
#639=VERTEX_POINT('',#2163);
#640=VERTEX_POINT('',#2166);
#641=VERTEX_POINT('',#2167);
#642=VERTEX_POINT('',#2169);
#643=VERTEX_POINT('',#2171);
#644=VERTEX_POINT('',#2173);
#645=VERTEX_POINT('',#2175);
#646=VERTEX_POINT('',#2177);
#647=VERTEX_POINT('',#2179);
#648=VERTEX_POINT('',#2211);
#649=VERTEX_POINT('',#2213);
#650=VERTEX_POINT('',#2217);
#651=VERTEX_POINT('',#2218);
#652=VERTEX_POINT('',#2236);
#653=VERTEX_POINT('',#2238);
#654=VERTEX_POINT('',#2240);
#655=VERTEX_POINT('',#2242);
#656=VERTEX_POINT('',#2244);
#657=VERTEX_POINT('',#2246);
#658=VERTEX_POINT('',#2255);
#659=VERTEX_POINT('',#2263);
#660=VERTEX_POINT('',#2267);
#661=VERTEX_POINT('',#2275);
#662=VERTEX_POINT('',#2281);
#663=VERTEX_POINT('',#2283);
#664=VERTEX_POINT('',#2287);
#665=VERTEX_POINT('',#2291);
#666=VERTEX_POINT('',#2295);
#667=VERTEX_POINT('',#2299);
#668=VERTEX_POINT('',#2303);
#669=VERTEX_POINT('',#2307);
#670=EDGE_CURVE('',#542,#543,#470,.T.);
#671=EDGE_CURVE('',#542,#544,#230,.T.);
#672=EDGE_CURVE('',#544,#545,#471,.T.);
#673=EDGE_CURVE('',#545,#543,#231,.T.);
#674=EDGE_CURVE('',#546,#542,#232,.F.);
#675=EDGE_CURVE('',#547,#546,#233,.T.);
#676=EDGE_CURVE('',#547,#544,#234,.F.);
#677=EDGE_CURVE('',#548,#546,#472,.T.);
#678=EDGE_CURVE('',#548,#549,#235,.T.);
#679=EDGE_CURVE('',#549,#547,#473,.T.);
#680=EDGE_CURVE('',#550,#543,#236,.T.);
#681=EDGE_CURVE('',#550,#551,#474,.T.);
#682=EDGE_CURVE('',#552,#551,#237,.T.);
#683=EDGE_CURVE('',#553,#552,#238,.T.);
#684=EDGE_CURVE('',#553,#554,#239,.T.);
#685=EDGE_CURVE('',#554,#555,#475,.T.);
#686=EDGE_CURVE('',#556,#555,#240,.T.);
#687=EDGE_CURVE('',#556,#557,#476,.T.);
#688=EDGE_CURVE('',#558,#557,#241,.T.);
#689=EDGE_CURVE('',#558,#559,#477,.F.);
#690=EDGE_CURVE('',#559,#560,#478,.T.);
#691=EDGE_CURVE('',#561,#560,#479,.T.);
#692=EDGE_CURVE('',#561,#562,#242,.T.);
#693=EDGE_CURVE('',#563,#562,#480,.T.);
#694=EDGE_CURVE('',#564,#563,#481,.T.);
#695=EDGE_CURVE('',#564,#565,#482,.T.);
#696=EDGE_CURVE('',#566,#565,#483,.T.);
#697=EDGE_CURVE('',#567,#566,#243,.T.);
#698=EDGE_CURVE('',#568,#567,#484,.T.);
#699=EDGE_CURVE('',#568,#569,#485,.T.);
#700=EDGE_CURVE('',#570,#569,#486,.T.);
#701=EDGE_CURVE('',#570,#571,#487,.T.);
#702=EDGE_CURVE('',#572,#571,#244,.T.);
#703=EDGE_CURVE('',#573,#572,#488,.T.);
#704=EDGE_CURVE('',#573,#574,#489,.T.);
#705=EDGE_CURVE('',#575,#574,#490,.T.);
#706=EDGE_CURVE('',#576,#575,#245,.T.);
#707=EDGE_CURVE('',#576,#577,#491,.T.);
#708=EDGE_CURVE('',#577,#578,#246,.T.);
#709=EDGE_CURVE('',#578,#579,#492,.T.);
#710=EDGE_CURVE('',#579,#580,#247,.T.);
#711=EDGE_CURVE('',#580,#581,#248,.T.);
#712=EDGE_CURVE('',#582,#581,#249,.T.);
#713=EDGE_CURVE('',#582,#583,#493,.T.);
#714=EDGE_CURVE('',#583,#548,#250,.T.);
#715=EDGE_CURVE('',#584,#584,#494,.T.);
#716=EDGE_CURVE('',#585,#585,#495,.F.);
#717=EDGE_CURVE('',#586,#586,#496,.T.);
#718=EDGE_CURVE('',#587,#587,#497,.T.);
#719=EDGE_CURVE('',#588,#588,#498,.F.);
#720=EDGE_CURVE('',#589,#589,#499,.F.);
#721=EDGE_CURVE('',#590,#590,#500,.T.);
#722=EDGE_CURVE('',#591,#591,#501,.T.);
#723=EDGE_CURVE('',#592,#592,#502,.F.);
#724=EDGE_CURVE('',#593,#593,#503,.T.);
#725=EDGE_CURVE('',#594,#545,#251,.F.);
#726=EDGE_CURVE('',#550,#594,#252,.T.);
#727=EDGE_CURVE('',#595,#583,#253,.T.);
#728=EDGE_CURVE('',#595,#549,#254,.F.);
#729=EDGE_CURVE('',#576,#596,#255,.T.);
#730=EDGE_CURVE('',#596,#597,#504,.F.);
#731=EDGE_CURVE('',#597,#577,#256,.T.);
#732=EDGE_CURVE('',#597,#598,#257,.F.);
#733=EDGE_CURVE('',#578,#598,#258,.T.);
#734=EDGE_CURVE('',#599,#575,#259,.T.);
#735=EDGE_CURVE('',#599,#600,#260,.T.);
#736=EDGE_CURVE('',#558,#600,#261,.T.);
#737=EDGE_CURVE('',#601,#557,#262,.T.);
#738=EDGE_CURVE('',#602,#601,#263,.T.);
#739=EDGE_CURVE('',#603,#602,#264,.F.);
#740=EDGE_CURVE('',#603,#604,#265,.F.);
#741=EDGE_CURVE('',#604,#605,#266,.F.);
#742=EDGE_CURVE('',#596,#605,#267,.T.);
#743=EDGE_CURVE('',#582,#606,#268,.T.);
#744=EDGE_CURVE('',#606,#595,#505,.F.);
#745=EDGE_CURVE('',#581,#607,#269,.T.);
#746=EDGE_CURVE('',#606,#607,#270,.T.);
#747=EDGE_CURVE('',#598,#608,#506,.F.);
#748=EDGE_CURVE('',#608,#579,#271,.T.);
#749=EDGE_CURVE('',#608,#609,#272,.T.);
#750=EDGE_CURVE('',#580,#609,#273,.T.);
#751=EDGE_CURVE('',#554,#610,#274,.T.);
#752=EDGE_CURVE('',#610,#611,#507,.F.);
#753=EDGE_CURVE('',#611,#555,#275,.T.);
#754=EDGE_CURVE('',#612,#611,#276,.F.);
#755=EDGE_CURVE('',#556,#612,#277,.T.);
#756=EDGE_CURVE('',#553,#613,#278,.T.);
#757=EDGE_CURVE('',#613,#610,#279,.T.);
#758=EDGE_CURVE('',#594,#614,#508,.F.);
#759=EDGE_CURVE('',#614,#551,#280,.T.);
#760=EDGE_CURVE('',#615,#614,#281,.T.);
#761=EDGE_CURVE('',#552,#615,#282,.T.);
#762=EDGE_CURVE('',#612,#601,#509,.F.);
#763=EDGE_CURVE('',#616,#617,#283,.T.);
#764=EDGE_CURVE('',#618,#617,#284,.T.);
#765=EDGE_CURVE('',#619,#618,#285,.T.);
#766=EDGE_CURVE('',#619,#620,#286,.T.);
#767=EDGE_CURVE('',#620,#621,#287,.T.);
#768=EDGE_CURVE('',#622,#621,#288,.F.);
#769=EDGE_CURVE('',#623,#622,#289,.F.);
#770=EDGE_CURVE('',#623,#616,#290,.F.);
#771=EDGE_CURVE('',#624,#625,#510,.T.);
#772=EDGE_CURVE('',#624,#570,#291,.T.);
#773=EDGE_CURVE('',#569,#625,#292,.T.);
#774=EDGE_CURVE('',#626,#625,#511,.T.);
#775=EDGE_CURVE('',#626,#627,#512,.T.);
#776=EDGE_CURVE('',#627,#628,#293,.T.);
#777=EDGE_CURVE('',#628,#629,#513,.T.);
#778=EDGE_CURVE('',#630,#629,#514,.T.);
#779=EDGE_CURVE('',#630,#631,#515,.T.);
#780=EDGE_CURVE('',#631,#632,#516,.T.);
#781=EDGE_CURVE('',#633,#632,#294,.T.);
#782=EDGE_CURVE('',#633,#634,#517,.T.);
#783=EDGE_CURVE('',#635,#634,#518,.T.);
#784=EDGE_CURVE('',#635,#600,#519,.T.);
#785=EDGE_CURVE('',#599,#636,#520,.T.);
#786=EDGE_CURVE('',#637,#636,#521,.T.);
#787=EDGE_CURVE('',#637,#638,#522,.T.);
#788=EDGE_CURVE('',#638,#639,#295,.T.);
#789=EDGE_CURVE('',#624,#639,#523,.T.);
#790=EDGE_CURVE('',#640,#641,#524,.T.);
#791=EDGE_CURVE('',#642,#640,#296,.T.);
#792=EDGE_CURVE('',#642,#643,#525,.T.);
#793=EDGE_CURVE('',#644,#643,#297,.T.);
#794=EDGE_CURVE('',#645,#644,#526,.T.);
#795=EDGE_CURVE('',#645,#646,#298,.T.);
#796=EDGE_CURVE('',#646,#647,#527,.T.);
#797=EDGE_CURVE('',#647,#641,#299,.T.);
#798=EDGE_CURVE('',#626,#568,#300,.T.);
#799=EDGE_CURVE('',#567,#627,#301,.T.);
#800=EDGE_CURVE('',#628,#566,#302,.T.);
#801=EDGE_CURVE('',#565,#629,#303,.T.);
#802=EDGE_CURVE('',#630,#564,#304,.T.);
#803=EDGE_CURVE('',#563,#631,#305,.T.);
#804=EDGE_CURVE('',#574,#636,#306,.T.);
#805=EDGE_CURVE('',#637,#573,#307,.T.);
#806=EDGE_CURVE('',#572,#638,#308,.T.);
#807=EDGE_CURVE('',#635,#559,#309,.T.);
#808=EDGE_CURVE('',#560,#634,#310,.T.);
#809=EDGE_CURVE('',#633,#561,#311,.T.);
#810=EDGE_CURVE('',#632,#562,#312,.T.);
#811=EDGE_CURVE('',#613,#615,#313,.F.);
#812=EDGE_CURVE('',#618,#648,#314,.T.);
#813=EDGE_CURVE('',#617,#649,#315,.F.);
#814=EDGE_CURVE('',#648,#649,#316,.T.);
#815=EDGE_CURVE('',#650,#651,#317,.T.);
#816=EDGE_CURVE('',#650,#648,#318,.F.);
#817=EDGE_CURVE('',#651,#649,#319,.F.);
#818=EDGE_CURVE('',#619,#650,#320,.T.);
#819=EDGE_CURVE('',#620,#651,#321,.F.);
#820=EDGE_CURVE('',#609,#607,#322,.F.);
#821=EDGE_CURVE('',#622,#604,#323,.T.);
#822=EDGE_CURVE('',#621,#605,#324,.F.);
#823=EDGE_CURVE('',#623,#603,#325,.T.);
#824=EDGE_CURVE('',#616,#602,#326,.F.);
#825=EDGE_CURVE('',#652,#652,#528,.F.);
#826=EDGE_CURVE('',#653,#653,#529,.F.);
#827=EDGE_CURVE('',#654,#654,#530,.F.);
#828=EDGE_CURVE('',#655,#655,#531,.F.);
#829=EDGE_CURVE('',#656,#656,#532,.F.);
#830=EDGE_CURVE('',#657,#657,#533,.F.);
#831=EDGE_CURVE('',#639,#571,#327,.T.);
#832=EDGE_CURVE('',#584,#652,#328,.T.);
#833=EDGE_CURVE('',#585,#658,#329,.T.);
#834=EDGE_CURVE('',#658,#658,#534,.F.);
#835=EDGE_CURVE('',#586,#653,#330,.T.);
#836=EDGE_CURVE('',#587,#654,#331,.T.);
#837=EDGE_CURVE('',#588,#659,#332,.T.);
#838=EDGE_CURVE('',#659,#659,#535,.F.);
#839=EDGE_CURVE('',#589,#660,#333,.T.);
#840=EDGE_CURVE('',#660,#660,#536,.F.);
#841=EDGE_CURVE('',#590,#655,#334,.T.);
#842=EDGE_CURVE('',#591,#656,#335,.T.);
#843=EDGE_CURVE('',#592,#661,#336,.T.);
#844=EDGE_CURVE('',#661,#661,#537,.F.);
#845=EDGE_CURVE('',#593,#657,#337,.T.);
#846=EDGE_CURVE('',#641,#662,#338,.T.);
#847=EDGE_CURVE('',#663,#662,#538,.T.);
#848=EDGE_CURVE('',#640,#663,#339,.T.);
#849=EDGE_CURVE('',#664,#663,#340,.T.);
#850=EDGE_CURVE('',#642,#664,#341,.T.);
#851=EDGE_CURVE('',#664,#665,#539,.T.);
#852=EDGE_CURVE('',#643,#665,#342,.T.);
#853=EDGE_CURVE('',#666,#665,#343,.T.);
#854=EDGE_CURVE('',#644,#666,#344,.T.);
#855=EDGE_CURVE('',#667,#666,#540,.T.);
#856=EDGE_CURVE('',#645,#667,#345,.T.);
#857=EDGE_CURVE('',#667,#668,#346,.T.);
#858=EDGE_CURVE('',#646,#668,#347,.T.);
#859=EDGE_CURVE('',#668,#669,#541,.T.);
#860=EDGE_CURVE('',#647,#669,#348,.T.);
#861=EDGE_CURVE('',#669,#662,#349,.T.);
#862=ORIENTED_EDGE('',*,*,#670,.F.);
#863=ORIENTED_EDGE('',*,*,#671,.T.);
#864=ORIENTED_EDGE('',*,*,#672,.T.);
#865=ORIENTED_EDGE('',*,*,#673,.T.);
#866=ORIENTED_EDGE('',*,*,#671,.F.);
#867=ORIENTED_EDGE('',*,*,#674,.F.);
#868=ORIENTED_EDGE('',*,*,#675,.F.);
#869=ORIENTED_EDGE('',*,*,#676,.T.);
#870=ORIENTED_EDGE('',*,*,#677,.F.);
#871=ORIENTED_EDGE('',*,*,#678,.T.);
#872=ORIENTED_EDGE('',*,*,#679,.T.);
#873=ORIENTED_EDGE('',*,*,#675,.T.);
#874=ORIENTED_EDGE('',*,*,#670,.T.);
#875=ORIENTED_EDGE('',*,*,#680,.F.);
#876=ORIENTED_EDGE('',*,*,#681,.T.);
#877=ORIENTED_EDGE('',*,*,#682,.F.);
#878=ORIENTED_EDGE('',*,*,#683,.F.);
#879=ORIENTED_EDGE('',*,*,#684,.T.);
#880=ORIENTED_EDGE('',*,*,#685,.T.);
#881=ORIENTED_EDGE('',*,*,#686,.F.);
#882=ORIENTED_EDGE('',*,*,#687,.T.);
#883=ORIENTED_EDGE('',*,*,#688,.F.);
#884=ORIENTED_EDGE('',*,*,#689,.T.);
#885=ORIENTED_EDGE('',*,*,#690,.T.);
#886=ORIENTED_EDGE('',*,*,#691,.F.);
#887=ORIENTED_EDGE('',*,*,#692,.T.);
#888=ORIENTED_EDGE('',*,*,#693,.F.);
#889=ORIENTED_EDGE('',*,*,#694,.F.);
#890=ORIENTED_EDGE('',*,*,#695,.T.);
#891=ORIENTED_EDGE('',*,*,#696,.F.);
#892=ORIENTED_EDGE('',*,*,#697,.F.);
#893=ORIENTED_EDGE('',*,*,#698,.F.);
#894=ORIENTED_EDGE('',*,*,#699,.T.);
#895=ORIENTED_EDGE('',*,*,#700,.F.);
#896=ORIENTED_EDGE('',*,*,#701,.T.);
#897=ORIENTED_EDGE('',*,*,#702,.F.);
#898=ORIENTED_EDGE('',*,*,#703,.F.);
#899=ORIENTED_EDGE('',*,*,#704,.T.);
#900=ORIENTED_EDGE('',*,*,#705,.F.);
#901=ORIENTED_EDGE('',*,*,#706,.F.);
#902=ORIENTED_EDGE('',*,*,#707,.T.);
#903=ORIENTED_EDGE('',*,*,#708,.T.);
#904=ORIENTED_EDGE('',*,*,#709,.T.);
#905=ORIENTED_EDGE('',*,*,#710,.T.);
#906=ORIENTED_EDGE('',*,*,#711,.T.);
#907=ORIENTED_EDGE('',*,*,#712,.F.);
#908=ORIENTED_EDGE('',*,*,#713,.T.);
#909=ORIENTED_EDGE('',*,*,#714,.T.);
#910=ORIENTED_EDGE('',*,*,#677,.T.);
#911=ORIENTED_EDGE('',*,*,#674,.T.);
#912=ORIENTED_EDGE('',*,*,#715,.T.);
#913=ORIENTED_EDGE('',*,*,#716,.F.);
#914=ORIENTED_EDGE('',*,*,#717,.T.);
#915=ORIENTED_EDGE('',*,*,#718,.T.);
#916=ORIENTED_EDGE('',*,*,#719,.F.);
#917=ORIENTED_EDGE('',*,*,#720,.F.);
#918=ORIENTED_EDGE('',*,*,#721,.T.);
#919=ORIENTED_EDGE('',*,*,#722,.T.);
#920=ORIENTED_EDGE('',*,*,#723,.F.);
#921=ORIENTED_EDGE('',*,*,#724,.T.);
#922=ORIENTED_EDGE('',*,*,#673,.F.);
#923=ORIENTED_EDGE('',*,*,#725,.F.);
#924=ORIENTED_EDGE('',*,*,#726,.F.);
#925=ORIENTED_EDGE('',*,*,#680,.T.);
#926=ORIENTED_EDGE('',*,*,#678,.F.);
#927=ORIENTED_EDGE('',*,*,#714,.F.);
#928=ORIENTED_EDGE('',*,*,#727,.F.);
#929=ORIENTED_EDGE('',*,*,#728,.T.);
#930=ORIENTED_EDGE('',*,*,#707,.F.);
#931=ORIENTED_EDGE('',*,*,#729,.T.);
#932=ORIENTED_EDGE('',*,*,#730,.T.);
#933=ORIENTED_EDGE('',*,*,#731,.T.);
#934=ORIENTED_EDGE('',*,*,#731,.F.);
#935=ORIENTED_EDGE('',*,*,#732,.T.);
#936=ORIENTED_EDGE('',*,*,#733,.F.);
#937=ORIENTED_EDGE('',*,*,#708,.F.);
#938=ORIENTED_EDGE('',*,*,#729,.F.);
#939=ORIENTED_EDGE('',*,*,#706,.T.);
#940=ORIENTED_EDGE('',*,*,#734,.F.);
#941=ORIENTED_EDGE('',*,*,#735,.T.);
#942=ORIENTED_EDGE('',*,*,#736,.F.);
#943=ORIENTED_EDGE('',*,*,#688,.T.);
#944=ORIENTED_EDGE('',*,*,#737,.F.);
#945=ORIENTED_EDGE('',*,*,#738,.F.);
#946=ORIENTED_EDGE('',*,*,#739,.F.);
#947=ORIENTED_EDGE('',*,*,#740,.T.);
#948=ORIENTED_EDGE('',*,*,#741,.T.);
#949=ORIENTED_EDGE('',*,*,#742,.F.);
#950=ORIENTED_EDGE('',*,*,#713,.F.);
#951=ORIENTED_EDGE('',*,*,#743,.T.);
#952=ORIENTED_EDGE('',*,*,#744,.T.);
#953=ORIENTED_EDGE('',*,*,#727,.T.);
#954=ORIENTED_EDGE('',*,*,#743,.F.);
#955=ORIENTED_EDGE('',*,*,#712,.T.);
#956=ORIENTED_EDGE('',*,*,#745,.T.);
#957=ORIENTED_EDGE('',*,*,#746,.F.);
#958=ORIENTED_EDGE('',*,*,#709,.F.);
#959=ORIENTED_EDGE('',*,*,#733,.T.);
#960=ORIENTED_EDGE('',*,*,#747,.T.);
#961=ORIENTED_EDGE('',*,*,#748,.T.);
#962=ORIENTED_EDGE('',*,*,#748,.F.);
#963=ORIENTED_EDGE('',*,*,#749,.T.);
#964=ORIENTED_EDGE('',*,*,#750,.F.);
#965=ORIENTED_EDGE('',*,*,#710,.F.);
#966=ORIENTED_EDGE('',*,*,#685,.F.);
#967=ORIENTED_EDGE('',*,*,#751,.T.);
#968=ORIENTED_EDGE('',*,*,#752,.T.);
#969=ORIENTED_EDGE('',*,*,#753,.T.);
#970=ORIENTED_EDGE('',*,*,#753,.F.);
#971=ORIENTED_EDGE('',*,*,#754,.F.);
#972=ORIENTED_EDGE('',*,*,#755,.F.);
#973=ORIENTED_EDGE('',*,*,#686,.T.);
#974=ORIENTED_EDGE('',*,*,#751,.F.);
#975=ORIENTED_EDGE('',*,*,#684,.F.);
#976=ORIENTED_EDGE('',*,*,#756,.T.);
#977=ORIENTED_EDGE('',*,*,#757,.T.);
#978=ORIENTED_EDGE('',*,*,#681,.F.);
#979=ORIENTED_EDGE('',*,*,#726,.T.);
#980=ORIENTED_EDGE('',*,*,#758,.T.);
#981=ORIENTED_EDGE('',*,*,#759,.T.);
#982=ORIENTED_EDGE('',*,*,#759,.F.);
#983=ORIENTED_EDGE('',*,*,#760,.F.);
#984=ORIENTED_EDGE('',*,*,#761,.F.);
#985=ORIENTED_EDGE('',*,*,#682,.T.);
#986=ORIENTED_EDGE('',*,*,#687,.F.);
#987=ORIENTED_EDGE('',*,*,#755,.T.);
#988=ORIENTED_EDGE('',*,*,#762,.T.);
#989=ORIENTED_EDGE('',*,*,#737,.T.);
#990=ORIENTED_EDGE('',*,*,#763,.T.);
#991=ORIENTED_EDGE('',*,*,#764,.F.);
#992=ORIENTED_EDGE('',*,*,#765,.F.);
#993=ORIENTED_EDGE('',*,*,#766,.T.);
#994=ORIENTED_EDGE('',*,*,#767,.T.);
#995=ORIENTED_EDGE('',*,*,#768,.F.);
#996=ORIENTED_EDGE('',*,*,#769,.F.);
#997=ORIENTED_EDGE('',*,*,#770,.T.);
#998=ORIENTED_EDGE('',*,*,#771,.F.);
#999=ORIENTED_EDGE('',*,*,#772,.T.);
#1000=ORIENTED_EDGE('',*,*,#700,.T.);
#1001=ORIENTED_EDGE('',*,*,#773,.T.);
#1002=ORIENTED_EDGE('',*,*,#771,.T.);
#1003=ORIENTED_EDGE('',*,*,#774,.F.);
#1004=ORIENTED_EDGE('',*,*,#775,.T.);
#1005=ORIENTED_EDGE('',*,*,#776,.T.);
#1006=ORIENTED_EDGE('',*,*,#777,.T.);
#1007=ORIENTED_EDGE('',*,*,#778,.F.);
#1008=ORIENTED_EDGE('',*,*,#779,.T.);
#1009=ORIENTED_EDGE('',*,*,#780,.T.);
#1010=ORIENTED_EDGE('',*,*,#781,.F.);
#1011=ORIENTED_EDGE('',*,*,#782,.T.);
#1012=ORIENTED_EDGE('',*,*,#783,.F.);
#1013=ORIENTED_EDGE('',*,*,#784,.T.);
#1014=ORIENTED_EDGE('',*,*,#735,.F.);
#1015=ORIENTED_EDGE('',*,*,#785,.T.);
#1016=ORIENTED_EDGE('',*,*,#786,.F.);
#1017=ORIENTED_EDGE('',*,*,#787,.T.);
#1018=ORIENTED_EDGE('',*,*,#788,.T.);
#1019=ORIENTED_EDGE('',*,*,#789,.F.);
#1020=ORIENTED_EDGE('',*,*,#790,.F.);
#1021=ORIENTED_EDGE('',*,*,#791,.F.);
#1022=ORIENTED_EDGE('',*,*,#792,.T.);
#1023=ORIENTED_EDGE('',*,*,#793,.F.);
#1024=ORIENTED_EDGE('',*,*,#794,.F.);
#1025=ORIENTED_EDGE('',*,*,#795,.T.);
#1026=ORIENTED_EDGE('',*,*,#796,.T.);
#1027=ORIENTED_EDGE('',*,*,#797,.T.);
#1028=ORIENTED_EDGE('',*,*,#773,.F.);
#1029=ORIENTED_EDGE('',*,*,#699,.F.);
#1030=ORIENTED_EDGE('',*,*,#798,.F.);
#1031=ORIENTED_EDGE('',*,*,#774,.T.);
#1032=ORIENTED_EDGE('',*,*,#775,.F.);
#1033=ORIENTED_EDGE('',*,*,#798,.T.);
#1034=ORIENTED_EDGE('',*,*,#698,.T.);
#1035=ORIENTED_EDGE('',*,*,#799,.T.);
#1036=ORIENTED_EDGE('',*,*,#799,.F.);
#1037=ORIENTED_EDGE('',*,*,#697,.T.);
#1038=ORIENTED_EDGE('',*,*,#800,.F.);
#1039=ORIENTED_EDGE('',*,*,#776,.F.);
#1040=ORIENTED_EDGE('',*,*,#696,.T.);
#1041=ORIENTED_EDGE('',*,*,#801,.T.);
#1042=ORIENTED_EDGE('',*,*,#777,.F.);
#1043=ORIENTED_EDGE('',*,*,#800,.T.);
#1044=ORIENTED_EDGE('',*,*,#801,.F.);
#1045=ORIENTED_EDGE('',*,*,#695,.F.);
#1046=ORIENTED_EDGE('',*,*,#802,.F.);
#1047=ORIENTED_EDGE('',*,*,#778,.T.);
#1048=ORIENTED_EDGE('',*,*,#779,.F.);
#1049=ORIENTED_EDGE('',*,*,#802,.T.);
#1050=ORIENTED_EDGE('',*,*,#694,.T.);
#1051=ORIENTED_EDGE('',*,*,#803,.T.);
#1052=ORIENTED_EDGE('',*,*,#705,.T.);
#1053=ORIENTED_EDGE('',*,*,#804,.T.);
#1054=ORIENTED_EDGE('',*,*,#785,.F.);
#1055=ORIENTED_EDGE('',*,*,#734,.T.);
#1056=ORIENTED_EDGE('',*,*,#787,.F.);
#1057=ORIENTED_EDGE('',*,*,#805,.T.);
#1058=ORIENTED_EDGE('',*,*,#703,.T.);
#1059=ORIENTED_EDGE('',*,*,#806,.T.);
#1060=ORIENTED_EDGE('',*,*,#804,.F.);
#1061=ORIENTED_EDGE('',*,*,#704,.F.);
#1062=ORIENTED_EDGE('',*,*,#805,.F.);
#1063=ORIENTED_EDGE('',*,*,#786,.T.);
#1064=ORIENTED_EDGE('',*,*,#784,.F.);
#1065=ORIENTED_EDGE('',*,*,#807,.T.);
#1066=ORIENTED_EDGE('',*,*,#689,.F.);
#1067=ORIENTED_EDGE('',*,*,#736,.T.);
#1068=ORIENTED_EDGE('',*,*,#807,.F.);
#1069=ORIENTED_EDGE('',*,*,#783,.T.);
#1070=ORIENTED_EDGE('',*,*,#808,.F.);
#1071=ORIENTED_EDGE('',*,*,#690,.F.);
#1072=ORIENTED_EDGE('',*,*,#691,.T.);
#1073=ORIENTED_EDGE('',*,*,#808,.T.);
#1074=ORIENTED_EDGE('',*,*,#782,.F.);
#1075=ORIENTED_EDGE('',*,*,#809,.T.);
#1076=ORIENTED_EDGE('',*,*,#809,.F.);
#1077=ORIENTED_EDGE('',*,*,#781,.T.);
#1078=ORIENTED_EDGE('',*,*,#810,.T.);
#1079=ORIENTED_EDGE('',*,*,#692,.F.);
#1080=ORIENTED_EDGE('',*,*,#683,.T.);
#1081=ORIENTED_EDGE('',*,*,#761,.T.);
#1082=ORIENTED_EDGE('',*,*,#811,.F.);
#1083=ORIENTED_EDGE('',*,*,#756,.F.);
#1084=ORIENTED_EDGE('',*,*,#812,.F.);
#1085=ORIENTED_EDGE('',*,*,#764,.T.);
#1086=ORIENTED_EDGE('',*,*,#813,.T.);
#1087=ORIENTED_EDGE('',*,*,#814,.F.);
#1088=ORIENTED_EDGE('',*,*,#815,.F.);
#1089=ORIENTED_EDGE('',*,*,#816,.T.);
#1090=ORIENTED_EDGE('',*,*,#814,.T.);
#1091=ORIENTED_EDGE('',*,*,#817,.F.);
#1092=ORIENTED_EDGE('',*,*,#818,.T.);
#1093=ORIENTED_EDGE('',*,*,#815,.T.);
#1094=ORIENTED_EDGE('',*,*,#819,.F.);
#1095=ORIENTED_EDGE('',*,*,#766,.F.);
#1096=ORIENTED_EDGE('',*,*,#711,.F.);
#1097=ORIENTED_EDGE('',*,*,#750,.T.);
#1098=ORIENTED_EDGE('',*,*,#820,.T.);
#1099=ORIENTED_EDGE('',*,*,#745,.F.);
#1100=ORIENTED_EDGE('',*,*,#821,.F.);
#1101=ORIENTED_EDGE('',*,*,#768,.T.);
#1102=ORIENTED_EDGE('',*,*,#822,.T.);
#1103=ORIENTED_EDGE('',*,*,#741,.F.);
#1104=ORIENTED_EDGE('',*,*,#823,.F.);
#1105=ORIENTED_EDGE('',*,*,#769,.T.);
#1106=ORIENTED_EDGE('',*,*,#821,.T.);
#1107=ORIENTED_EDGE('',*,*,#740,.F.);
#1108=ORIENTED_EDGE('',*,*,#823,.T.);
#1109=ORIENTED_EDGE('',*,*,#739,.T.);
#1110=ORIENTED_EDGE('',*,*,#824,.F.);
#1111=ORIENTED_EDGE('',*,*,#770,.F.);
#1112=ORIENTED_EDGE('',*,*,#725,.T.);
#1113=ORIENTED_EDGE('',*,*,#672,.F.);
#1114=ORIENTED_EDGE('',*,*,#676,.F.);
#1115=ORIENTED_EDGE('',*,*,#679,.F.);
#1116=ORIENTED_EDGE('',*,*,#728,.F.);
#1117=ORIENTED_EDGE('',*,*,#744,.F.);
#1118=ORIENTED_EDGE('',*,*,#746,.T.);
#1119=ORIENTED_EDGE('',*,*,#820,.F.);
#1120=ORIENTED_EDGE('',*,*,#749,.F.);
#1121=ORIENTED_EDGE('',*,*,#747,.F.);
#1122=ORIENTED_EDGE('',*,*,#732,.F.);
#1123=ORIENTED_EDGE('',*,*,#730,.F.);
#1124=ORIENTED_EDGE('',*,*,#742,.T.);
#1125=ORIENTED_EDGE('',*,*,#822,.F.);
#1126=ORIENTED_EDGE('',*,*,#767,.F.);
#1127=ORIENTED_EDGE('',*,*,#819,.T.);
#1128=ORIENTED_EDGE('',*,*,#817,.T.);
#1129=ORIENTED_EDGE('',*,*,#813,.F.);
#1130=ORIENTED_EDGE('',*,*,#763,.F.);
#1131=ORIENTED_EDGE('',*,*,#824,.T.);
#1132=ORIENTED_EDGE('',*,*,#738,.T.);
#1133=ORIENTED_EDGE('',*,*,#762,.F.);
#1134=ORIENTED_EDGE('',*,*,#754,.T.);
#1135=ORIENTED_EDGE('',*,*,#752,.F.);
#1136=ORIENTED_EDGE('',*,*,#757,.F.);
#1137=ORIENTED_EDGE('',*,*,#811,.T.);
#1138=ORIENTED_EDGE('',*,*,#760,.T.);
#1139=ORIENTED_EDGE('',*,*,#758,.F.);
#1140=ORIENTED_EDGE('',*,*,#765,.T.);
#1141=ORIENTED_EDGE('',*,*,#812,.T.);
#1142=ORIENTED_EDGE('',*,*,#816,.F.);
#1143=ORIENTED_EDGE('',*,*,#818,.F.);
#1144=ORIENTED_EDGE('',*,*,#825,.T.);
#1145=ORIENTED_EDGE('',*,*,#826,.T.);
#1146=ORIENTED_EDGE('',*,*,#827,.T.);
#1147=ORIENTED_EDGE('',*,*,#828,.T.);
#1148=ORIENTED_EDGE('',*,*,#829,.T.);
#1149=ORIENTED_EDGE('',*,*,#830,.T.);
#1150=ORIENTED_EDGE('',*,*,#803,.F.);
#1151=ORIENTED_EDGE('',*,*,#693,.T.);
#1152=ORIENTED_EDGE('',*,*,#810,.F.);
#1153=ORIENTED_EDGE('',*,*,#780,.F.);
#1154=ORIENTED_EDGE('',*,*,#806,.F.);
#1155=ORIENTED_EDGE('',*,*,#702,.T.);
#1156=ORIENTED_EDGE('',*,*,#831,.F.);
#1157=ORIENTED_EDGE('',*,*,#788,.F.);
#1158=ORIENTED_EDGE('',*,*,#772,.F.);
#1159=ORIENTED_EDGE('',*,*,#789,.T.);
#1160=ORIENTED_EDGE('',*,*,#831,.T.);
#1161=ORIENTED_EDGE('',*,*,#701,.F.);
#1162=ORIENTED_EDGE('',*,*,#715,.F.);
#1163=ORIENTED_EDGE('',*,*,#832,.T.);
#1164=ORIENTED_EDGE('',*,*,#825,.F.);
#1165=ORIENTED_EDGE('',*,*,#832,.F.);
#1166=ORIENTED_EDGE('',*,*,#716,.T.);
#1167=ORIENTED_EDGE('',*,*,#833,.T.);
#1168=ORIENTED_EDGE('',*,*,#834,.F.);
#1169=ORIENTED_EDGE('',*,*,#833,.F.);
#1170=ORIENTED_EDGE('',*,*,#717,.F.);
#1171=ORIENTED_EDGE('',*,*,#835,.T.);
#1172=ORIENTED_EDGE('',*,*,#826,.F.);
#1173=ORIENTED_EDGE('',*,*,#835,.F.);
#1174=ORIENTED_EDGE('',*,*,#718,.F.);
#1175=ORIENTED_EDGE('',*,*,#836,.T.);
#1176=ORIENTED_EDGE('',*,*,#827,.F.);
#1177=ORIENTED_EDGE('',*,*,#836,.F.);
#1178=ORIENTED_EDGE('',*,*,#719,.T.);
#1179=ORIENTED_EDGE('',*,*,#837,.T.);
#1180=ORIENTED_EDGE('',*,*,#838,.F.);
#1181=ORIENTED_EDGE('',*,*,#837,.F.);
#1182=ORIENTED_EDGE('',*,*,#720,.T.);
#1183=ORIENTED_EDGE('',*,*,#839,.T.);
#1184=ORIENTED_EDGE('',*,*,#840,.F.);
#1185=ORIENTED_EDGE('',*,*,#839,.F.);
#1186=ORIENTED_EDGE('',*,*,#721,.F.);
#1187=ORIENTED_EDGE('',*,*,#841,.T.);
#1188=ORIENTED_EDGE('',*,*,#828,.F.);
#1189=ORIENTED_EDGE('',*,*,#841,.F.);
#1190=ORIENTED_EDGE('',*,*,#722,.F.);
#1191=ORIENTED_EDGE('',*,*,#842,.T.);
#1192=ORIENTED_EDGE('',*,*,#829,.F.);
#1193=ORIENTED_EDGE('',*,*,#842,.F.);
#1194=ORIENTED_EDGE('',*,*,#723,.T.);
#1195=ORIENTED_EDGE('',*,*,#843,.T.);
#1196=ORIENTED_EDGE('',*,*,#844,.F.);
#1197=ORIENTED_EDGE('',*,*,#843,.F.);
#1198=ORIENTED_EDGE('',*,*,#724,.F.);
#1199=ORIENTED_EDGE('',*,*,#845,.T.);
#1200=ORIENTED_EDGE('',*,*,#830,.F.);
#1201=ORIENTED_EDGE('',*,*,#845,.F.);
#1202=ORIENTED_EDGE('',*,*,#790,.T.);
#1203=ORIENTED_EDGE('',*,*,#846,.T.);
#1204=ORIENTED_EDGE('',*,*,#847,.F.);
#1205=ORIENTED_EDGE('',*,*,#848,.F.);
#1206=ORIENTED_EDGE('',*,*,#849,.F.);
#1207=ORIENTED_EDGE('',*,*,#850,.F.);
#1208=ORIENTED_EDGE('',*,*,#791,.T.);
#1209=ORIENTED_EDGE('',*,*,#848,.T.);
#1210=ORIENTED_EDGE('',*,*,#792,.F.);
#1211=ORIENTED_EDGE('',*,*,#850,.T.);
#1212=ORIENTED_EDGE('',*,*,#851,.T.);
#1213=ORIENTED_EDGE('',*,*,#852,.F.);
#1214=ORIENTED_EDGE('',*,*,#793,.T.);
#1215=ORIENTED_EDGE('',*,*,#852,.T.);
#1216=ORIENTED_EDGE('',*,*,#853,.F.);
#1217=ORIENTED_EDGE('',*,*,#854,.F.);
#1218=ORIENTED_EDGE('',*,*,#794,.T.);
#1219=ORIENTED_EDGE('',*,*,#854,.T.);
#1220=ORIENTED_EDGE('',*,*,#855,.F.);
#1221=ORIENTED_EDGE('',*,*,#856,.F.);
#1222=ORIENTED_EDGE('',*,*,#857,.T.);
#1223=ORIENTED_EDGE('',*,*,#858,.F.);
#1224=ORIENTED_EDGE('',*,*,#795,.F.);
#1225=ORIENTED_EDGE('',*,*,#856,.T.);
#1226=ORIENTED_EDGE('',*,*,#796,.F.);
#1227=ORIENTED_EDGE('',*,*,#858,.T.);
#1228=ORIENTED_EDGE('',*,*,#859,.T.);
#1229=ORIENTED_EDGE('',*,*,#860,.F.);
#1230=ORIENTED_EDGE('',*,*,#797,.F.);
#1231=ORIENTED_EDGE('',*,*,#860,.T.);
#1232=ORIENTED_EDGE('',*,*,#861,.T.);
#1233=ORIENTED_EDGE('',*,*,#846,.F.);
#1234=ORIENTED_EDGE('',*,*,#834,.T.);
#1235=ORIENTED_EDGE('',*,*,#838,.T.);
#1236=ORIENTED_EDGE('',*,*,#840,.T.);
#1237=ORIENTED_EDGE('',*,*,#844,.T.);
#1238=ORIENTED_EDGE('',*,*,#857,.F.);
#1239=ORIENTED_EDGE('',*,*,#855,.T.);
#1240=ORIENTED_EDGE('',*,*,#853,.T.);
#1241=ORIENTED_EDGE('',*,*,#851,.F.);
#1242=ORIENTED_EDGE('',*,*,#849,.T.);
#1243=ORIENTED_EDGE('',*,*,#847,.T.);
#1244=ORIENTED_EDGE('',*,*,#861,.F.);
#1245=ORIENTED_EDGE('',*,*,#859,.F.);
#1246=CYLINDRICAL_SURFACE('',#1368,2.);
#1247=CYLINDRICAL_SURFACE('',#1372,2.);
#1248=CYLINDRICAL_SURFACE('',#1408,2.);
#1249=CYLINDRICAL_SURFACE('',#1412,2.);
#1250=CYLINDRICAL_SURFACE('',#1415,2.);
#1251=CYLINDRICAL_SURFACE('',#1418,2.);
#1252=CYLINDRICAL_SURFACE('',#1422,2.);
#1253=CYLINDRICAL_SURFACE('',#1425,2.);
#1254=CYLINDRICAL_SURFACE('',#1428,1.6);
#1255=CYLINDRICAL_SURFACE('',#1448,2.3);
#1256=CYLINDRICAL_SURFACE('',#1449,1.59999999999999);
#1257=CYLINDRICAL_SURFACE('',#1451,1.59999999999999);
#1258=CYLINDRICAL_SURFACE('',#1452,2.3);
#1259=CYLINDRICAL_SURFACE('',#1453,1.6);
#1260=CYLINDRICAL_SURFACE('',#1454,1.6);
#1261=CYLINDRICAL_SURFACE('',#1455,1.6);
#1262=CYLINDRICAL_SURFACE('',#1456,2.3);
#1263=CYLINDRICAL_SURFACE('',#1457,1.6);
#1264=CYLINDRICAL_SURFACE('',#1458,2.3);
#1265=CYLINDRICAL_SURFACE('',#1459,1.59999999999999);
#1266=CYLINDRICAL_SURFACE('',#1477,6.);
#1267=CYLINDRICAL_SURFACE('',#1479,6.);
#1268=CYLINDRICAL_SURFACE('',#1480,2.);
#1269=CYLINDRICAL_SURFACE('',#1481,1.25);
#1270=CYLINDRICAL_SURFACE('',#1483,2.);
#1271=CYLINDRICAL_SURFACE('',#1484,2.);
#1272=CYLINDRICAL_SURFACE('',#1485,1.25);
#1273=CYLINDRICAL_SURFACE('',#1487,1.25);
#1274=CYLINDRICAL_SURFACE('',#1489,2.);
#1275=CYLINDRICAL_SURFACE('',#1490,2.);
#1276=CYLINDRICAL_SURFACE('',#1491,1.25);
#1277=CYLINDRICAL_SURFACE('',#1493,2.);
#1278=CYLINDRICAL_SURFACE('',#1494,1.);
#1279=CYLINDRICAL_SURFACE('',#1497,1.);
#1280=CYLINDRICAL_SURFACE('',#1500,1.);
#1281=CYLINDRICAL_SURFACE('',#1503,1.);
#1282=ADVANCED_FACE('',(#71),#1246,.F.);
#1283=ADVANCED_FACE('',(#72),#36,.F.);
#1284=ADVANCED_FACE('',(#73),#1247,.F.);
#1285=ADVANCED_FACE('',(#74,#19,#20,#21,#22,#23,#24,#25,#26,#27,#28),#37,
 .T.);
#1286=ADVANCED_FACE('',(#75),#38,.F.);
#1287=ADVANCED_FACE('',(#76),#39,.T.);
#1288=ADVANCED_FACE('',(#77),#1248,.F.);
#1289=ADVANCED_FACE('',(#78),#40,.T.);
#1290=ADVANCED_FACE('',(#79),#41,.T.);
#1291=ADVANCED_FACE('',(#80),#1249,.F.);
#1292=ADVANCED_FACE('',(#81),#42,.T.);
#1293=ADVANCED_FACE('',(#82),#1250,.F.);
#1294=ADVANCED_FACE('',(#83),#43,.F.);
#1295=ADVANCED_FACE('',(#84),#1251,.F.);
#1296=ADVANCED_FACE('',(#85),#44,.F.);
#1297=ADVANCED_FACE('',(#86),#45,.F.);
#1298=ADVANCED_FACE('',(#87),#1252,.F.);
#1299=ADVANCED_FACE('',(#88),#46,.T.);
#1300=ADVANCED_FACE('',(#89),#1253,.F.);
#1301=ADVANCED_FACE('',(#90),#47,.F.);
#1302=ADVANCED_FACE('',(#91),#1254,.F.);
#1303=ADVANCED_FACE('',(#92,#29),#48,.T.);
#1304=ADVANCED_FACE('',(#93),#1255,.T.);
#1305=ADVANCED_FACE('',(#94),#1256,.F.);
#1306=ADVANCED_FACE('',(#95),#49,.F.);
#1307=ADVANCED_FACE('',(#96),#1257,.F.);
#1308=ADVANCED_FACE('',(#97),#1258,.T.);
#1309=ADVANCED_FACE('',(#98),#1259,.F.);
#1310=ADVANCED_FACE('',(#99),#1260,.F.);
#1311=ADVANCED_FACE('',(#100),#1261,.F.);
#1312=ADVANCED_FACE('',(#101),#1262,.T.);
#1313=ADVANCED_FACE('',(#102),#1263,.F.);
#1314=ADVANCED_FACE('',(#103),#1264,.T.);
#1315=ADVANCED_FACE('',(#104),#1265,.F.);
#1316=ADVANCED_FACE('',(#105),#50,.F.);
#1317=ADVANCED_FACE('',(#106),#51,.F.);
#1318=ADVANCED_FACE('',(#107),#52,.T.);
#1319=ADVANCED_FACE('',(#108),#53,.T.);
#1320=ADVANCED_FACE('',(#109),#54,.F.);
#1321=ADVANCED_FACE('',(#110),#55,.T.);
#1322=ADVANCED_FACE('',(#111),#56,.T.);
#1323=ADVANCED_FACE('',(#112),#57,.T.);
#1324=ADVANCED_FACE('',(#113),#58,.F.);
#1325=ADVANCED_FACE('',(#114),#59,.T.);
#1326=ADVANCED_FACE('',(#115,#30,#31,#32,#33,#34,#35),#60,.F.);
#1327=ADVANCED_FACE('',(#116),#1266,.F.);
#1328=ADVANCED_FACE('',(#117),#61,.T.);
#1329=ADVANCED_FACE('',(#118),#1267,.F.);
#1330=ADVANCED_FACE('',(#119),#1268,.F.);
#1331=ADVANCED_FACE('',(#120),#1269,.F.);
#1332=ADVANCED_FACE('',(#121),#1270,.F.);
#1333=ADVANCED_FACE('',(#122),#1271,.F.);
#1334=ADVANCED_FACE('',(#123),#1272,.F.);
#1335=ADVANCED_FACE('',(#124),#1273,.F.);
#1336=ADVANCED_FACE('',(#125),#1274,.F.);
#1337=ADVANCED_FACE('',(#126),#1275,.F.);
#1338=ADVANCED_FACE('',(#127),#1276,.F.);
#1339=ADVANCED_FACE('',(#128),#1277,.F.);
#1340=ADVANCED_FACE('',(#129),#1278,.T.);
#1341=ADVANCED_FACE('',(#130),#62,.T.);
#1342=ADVANCED_FACE('',(#131),#1279,.T.);
#1343=ADVANCED_FACE('',(#132),#63,.F.);
#1344=ADVANCED_FACE('',(#133),#1280,.T.);
#1345=ADVANCED_FACE('',(#134),#64,.F.);
#1346=ADVANCED_FACE('',(#135),#1281,.T.);
#1347=ADVANCED_FACE('',(#136),#65,.T.);
#1348=ADVANCED_FACE('',(#137),#66,.T.);
#1349=ADVANCED_FACE('',(#138),#67,.T.);
#1350=ADVANCED_FACE('',(#139),#68,.T.);
#1351=ADVANCED_FACE('',(#140),#69,.T.);
#1352=ADVANCED_FACE('',(#141),#70,.T.);
#1353=CLOSED_SHELL('',(#1282,#1283,#1284,#1285,#1286,#1287,#1288,#1289,
#1290,#1291,#1292,#1293,#1294,#1295,#1296,#1297,#1298,#1299,#1300,#1301,
#1302,#1303,#1304,#1305,#1306,#1307,#1308,#1309,#1310,#1311,#1312,#1313,
#1314,#1315,#1316,#1317,#1318,#1319,#1320,#1321,#1322,#1323,#1324,#1325,
#1326,#1327,#1328,#1329,#1330,#1331,#1332,#1333,#1334,#1335,#1336,#1337,
#1338,#1339,#1340,#1341,#1342,#1343,#1344,#1345,#1346,#1347,#1348,#1349,
#1350,#1351,#1352));
#1354=DERIVED_UNIT_ELEMENT(#1356,1.);
#1355=DERIVED_UNIT_ELEMENT(#2325,-3.);
#1356=(
MASS_UNIT()
NAMED_UNIT(*)
SI_UNIT(.KILO.,.GRAM.)
);
#1357=DERIVED_UNIT((#1354,#1355));
#1358=MEASURE_REPRESENTATION_ITEM('density measure',
POSITIVE_RATIO_MEASURE(7850.),#1357);
#1359=PROPERTY_DEFINITION_REPRESENTATION(#1364,#1361);
#1360=PROPERTY_DEFINITION_REPRESENTATION(#1365,#1362);
#1361=REPRESENTATION('material name',(#1363),#2322);
#1362=REPRESENTATION('density',(#1358),#2322);
#1363=DESCRIPTIVE_REPRESENTATION_ITEM('Steel','Steel');
#1364=PROPERTY_DEFINITION('material property','material name',#2337);
#1365=PROPERTY_DEFINITION('material property','density of part',#2337);
#1366=AXIS2_PLACEMENT_3D('',#1924,#1512,#1513);
#1367=AXIS2_PLACEMENT_3D('',#1925,#1514,#1515);
#1368=AXIS2_PLACEMENT_3D('',#1926,#1516,#1517);
#1369=AXIS2_PLACEMENT_3D('',#1929,#1518,#1519);
#1370=AXIS2_PLACEMENT_3D('',#1933,#1521,#1522);
#1371=AXIS2_PLACEMENT_3D('',#1935,#1524,#1525);
#1372=AXIS2_PLACEMENT_3D('',#1941,#1529,#1530);
#1373=AXIS2_PLACEMENT_3D('',#1943,#1531,#1532);
#1374=AXIS2_PLACEMENT_3D('',#1946,#1534,#1535);
#1375=AXIS2_PLACEMENT_3D('',#1947,#1536,#1537);
#1376=AXIS2_PLACEMENT_3D('',#1951,#1539,#1540);
#1377=AXIS2_PLACEMENT_3D('',#1959,#1544,#1545);
#1378=AXIS2_PLACEMENT_3D('',#1963,#1547,#1548);
#1379=AXIS2_PLACEMENT_3D('',#1967,#1550,#1551);
#1380=AXIS2_PLACEMENT_3D('',#1969,#1552,#1553);
#1381=AXIS2_PLACEMENT_3D('',#1971,#1554,#1555);
#1382=AXIS2_PLACEMENT_3D('',#1975,#1557,#1558);
#1383=AXIS2_PLACEMENT_3D('',#1977,#1559,#1560);
#1384=AXIS2_PLACEMENT_3D('',#1979,#1561,#1562);
#1385=AXIS2_PLACEMENT_3D('',#1981,#1563,#1564);
#1386=AXIS2_PLACEMENT_3D('',#1985,#1566,#1567);
#1387=AXIS2_PLACEMENT_3D('',#1987,#1568,#1569);
#1388=AXIS2_PLACEMENT_3D('',#1989,#1570,#1571);
#1389=AXIS2_PLACEMENT_3D('',#1991,#1572,#1573);
#1390=AXIS2_PLACEMENT_3D('',#1995,#1575,#1576);
#1391=AXIS2_PLACEMENT_3D('',#1997,#1577,#1578);
#1392=AXIS2_PLACEMENT_3D('',#1999,#1579,#1580);
#1393=AXIS2_PLACEMENT_3D('',#2003,#1582,#1583);
#1394=AXIS2_PLACEMENT_3D('',#2007,#1585,#1586);
#1395=AXIS2_PLACEMENT_3D('',#2015,#1590,#1591);
#1396=AXIS2_PLACEMENT_3D('',#2018,#1593,#1594);
#1397=AXIS2_PLACEMENT_3D('',#2020,#1595,#1596);
#1398=AXIS2_PLACEMENT_3D('',#2022,#1597,#1598);
#1399=AXIS2_PLACEMENT_3D('',#2024,#1599,#1600);
#1400=AXIS2_PLACEMENT_3D('',#2026,#1601,#1602);
#1401=AXIS2_PLACEMENT_3D('',#2028,#1603,#1604);
#1402=AXIS2_PLACEMENT_3D('',#2030,#1605,#1606);
#1403=AXIS2_PLACEMENT_3D('',#2032,#1607,#1608);
#1404=AXIS2_PLACEMENT_3D('',#2034,#1609,#1610);
#1405=AXIS2_PLACEMENT_3D('',#2036,#1611,#1612);
#1406=AXIS2_PLACEMENT_3D('',#2037,#1613,#1614);
#1407=AXIS2_PLACEMENT_3D('',#2041,#1617,#1618);
#1408=AXIS2_PLACEMENT_3D('',#2045,#1621,#1622);
#1409=AXIS2_PLACEMENT_3D('',#2049,#1624,#1625);
#1410=AXIS2_PLACEMENT_3D('',#2051,#1627,#1628);
#1411=AXIS2_PLACEMENT_3D('',#2055,#1631,#1632);
#1412=AXIS2_PLACEMENT_3D('',#2072,#1642,#1643);
#1413=AXIS2_PLACEMENT_3D('',#2075,#1645,#1646);
#1414=AXIS2_PLACEMENT_3D('',#2076,#1647,#1648);
#1415=AXIS2_PLACEMENT_3D('',#2080,#1651,#1652);
#1416=AXIS2_PLACEMENT_3D('',#2082,#1653,#1654);
#1417=AXIS2_PLACEMENT_3D('',#2084,#1656,#1657);
#1418=AXIS2_PLACEMENT_3D('',#2088,#1660,#1661);
#1419=AXIS2_PLACEMENT_3D('',#2092,#1663,#1664);
#1420=AXIS2_PLACEMENT_3D('',#2094,#1666,#1667);
#1421=AXIS2_PLACEMENT_3D('',#2098,#1670,#1671);
#1422=AXIS2_PLACEMENT_3D('',#2102,#1674,#1675);
#1423=AXIS2_PLACEMENT_3D('',#2104,#1676,#1677);
#1424=AXIS2_PLACEMENT_3D('',#2106,#1679,#1680);
#1425=AXIS2_PLACEMENT_3D('',#2110,#1683,#1684);
#1426=AXIS2_PLACEMENT_3D('',#2111,#1685,#1686);
#1427=AXIS2_PLACEMENT_3D('',#2112,#1687,#1688);
#1428=AXIS2_PLACEMENT_3D('',#2129,#1697,#1698);
#1429=AXIS2_PLACEMENT_3D('',#2132,#1699,#1700);
#1430=AXIS2_PLACEMENT_3D('',#2135,#1703,#1704);
#1431=AXIS2_PLACEMENT_3D('',#2137,#1705,#1706);
#1432=AXIS2_PLACEMENT_3D('',#2139,#1707,#1708);
#1433=AXIS2_PLACEMENT_3D('',#2143,#1710,#1711);
#1434=AXIS2_PLACEMENT_3D('',#2145,#1712,#1713);
#1435=AXIS2_PLACEMENT_3D('',#2147,#1714,#1715);
#1436=AXIS2_PLACEMENT_3D('',#2149,#1716,#1717);
#1437=AXIS2_PLACEMENT_3D('',#2153,#1719,#1720);
#1438=AXIS2_PLACEMENT_3D('',#2155,#1721,#1722);
#1439=AXIS2_PLACEMENT_3D('',#2156,#1723,#1724);
#1440=AXIS2_PLACEMENT_3D('',#2158,#1725,#1726);
#1441=AXIS2_PLACEMENT_3D('',#2160,#1727,#1728);
#1442=AXIS2_PLACEMENT_3D('',#2162,#1729,#1730);
#1443=AXIS2_PLACEMENT_3D('',#2165,#1732,#1733);
#1444=AXIS2_PLACEMENT_3D('',#2168,#1734,#1735);
#1445=AXIS2_PLACEMENT_3D('',#2172,#1737,#1738);
#1446=AXIS2_PLACEMENT_3D('',#2176,#1740,#1741);
#1447=AXIS2_PLACEMENT_3D('',#2180,#1743,#1744);
#1448=AXIS2_PLACEMENT_3D('',#2182,#1746,#1747);
#1449=AXIS2_PLACEMENT_3D('',#2184,#1749,#1750);
#1450=AXIS2_PLACEMENT_3D('',#2186,#1752,#1753);
#1451=AXIS2_PLACEMENT_3D('',#2188,#1755,#1756);
#1452=AXIS2_PLACEMENT_3D('',#2190,#1758,#1759);
#1453=AXIS2_PLACEMENT_3D('',#2192,#1761,#1762);
#1454=AXIS2_PLACEMENT_3D('',#2194,#1764,#1765);
#1455=AXIS2_PLACEMENT_3D('',#2196,#1767,#1768);
#1456=AXIS2_PLACEMENT_3D('',#2199,#1771,#1772);
#1457=AXIS2_PLACEMENT_3D('',#2200,#1773,#1774);
#1458=AXIS2_PLACEMENT_3D('',#2202,#1776,#1777);
#1459=AXIS2_PLACEMENT_3D('',#2204,#1779,#1780);
#1460=AXIS2_PLACEMENT_3D('',#2206,#1782,#1783);
#1461=AXIS2_PLACEMENT_3D('',#2208,#1785,#1786);
#1462=AXIS2_PLACEMENT_3D('',#2210,#1788,#1789);
#1463=AXIS2_PLACEMENT_3D('',#2216,#1793,#1794);
#1464=AXIS2_PLACEMENT_3D('',#2222,#1798,#1799);
#1465=AXIS2_PLACEMENT_3D('',#2225,#1802,#1803);
#1466=AXIS2_PLACEMENT_3D('',#2227,#1805,#1806);
#1467=AXIS2_PLACEMENT_3D('',#2230,#1809,#1810);
#1468=AXIS2_PLACEMENT_3D('',#2232,#1812,#1813);
#1469=AXIS2_PLACEMENT_3D('',#2234,#1815,#1816);
#1470=AXIS2_PLACEMENT_3D('',#2235,#1817,#1818);
#1471=AXIS2_PLACEMENT_3D('',#2237,#1819,#1820);
#1472=AXIS2_PLACEMENT_3D('',#2239,#1821,#1822);
#1473=AXIS2_PLACEMENT_3D('',#2241,#1823,#1824);
#1474=AXIS2_PLACEMENT_3D('',#2243,#1825,#1826);
#1475=AXIS2_PLACEMENT_3D('',#2245,#1827,#1828);
#1476=AXIS2_PLACEMENT_3D('',#2247,#1829,#1830);
#1477=AXIS2_PLACEMENT_3D('',#2248,#1831,#1832);
#1478=AXIS2_PLACEMENT_3D('',#2249,#1833,#1834);
#1479=AXIS2_PLACEMENT_3D('',#2251,#1836,#1837);
#1480=AXIS2_PLACEMENT_3D('',#2252,#1838,#1839);
#1481=AXIS2_PLACEMENT_3D('',#2254,#1841,#1842);
#1482=AXIS2_PLACEMENT_3D('',#2257,#1844,#1845);
#1483=AXIS2_PLACEMENT_3D('',#2258,#1846,#1847);
#1484=AXIS2_PLACEMENT_3D('',#2260,#1849,#1850);
#1485=AXIS2_PLACEMENT_3D('',#2262,#1852,#1853);
#1486=AXIS2_PLACEMENT_3D('',#2265,#1855,#1856);
#1487=AXIS2_PLACEMENT_3D('',#2266,#1857,#1858);
#1488=AXIS2_PLACEMENT_3D('',#2269,#1860,#1861);
#1489=AXIS2_PLACEMENT_3D('',#2270,#1862,#1863);
#1490=AXIS2_PLACEMENT_3D('',#2272,#1865,#1866);
#1491=AXIS2_PLACEMENT_3D('',#2274,#1868,#1869);
#1492=AXIS2_PLACEMENT_3D('',#2277,#1871,#1872);
#1493=AXIS2_PLACEMENT_3D('',#2278,#1873,#1874);
#1494=AXIS2_PLACEMENT_3D('',#2280,#1876,#1877);
#1495=AXIS2_PLACEMENT_3D('',#2284,#1879,#1880);
#1496=AXIS2_PLACEMENT_3D('',#2286,#1882,#1883);
#1497=AXIS2_PLACEMENT_3D('',#2290,#1886,#1887);
#1498=AXIS2_PLACEMENT_3D('',#2292,#1888,#1889);
#1499=AXIS2_PLACEMENT_3D('',#2294,#1891,#1892);
#1500=AXIS2_PLACEMENT_3D('',#2298,#1895,#1896);
#1501=AXIS2_PLACEMENT_3D('',#2300,#1897,#1898);
#1502=AXIS2_PLACEMENT_3D('',#2302,#1900,#1901);
#1503=AXIS2_PLACEMENT_3D('',#2306,#1904,#1905);
#1504=AXIS2_PLACEMENT_3D('',#2308,#1906,#1907);
#1505=AXIS2_PLACEMENT_3D('',#2310,#1909,#1910);
#1506=AXIS2_PLACEMENT_3D('',#2312,#1912,#1913);
#1507=AXIS2_PLACEMENT_3D('',#2313,#1914,#1915);
#1508=AXIS2_PLACEMENT_3D('',#2314,#1916,#1917);
#1509=AXIS2_PLACEMENT_3D('',#2315,#1918,#1919);
#1510=AXIS2_PLACEMENT_3D('',#2316,#1920,#1921);
#1511=AXIS2_PLACEMENT_3D('',#2317,#1922,#1923);
#1512=DIRECTION('axis',(0.,0.,1.));
#1513=DIRECTION('refdir',(1.,0.,0.));
#1514=DIRECTION('axis',(0.,0.,1.));
#1515=DIRECTION('refdir',(1.,0.,0.));
#1516=DIRECTION('center_axis',(0.,0.,1.));
#1517=DIRECTION('ref_axis',(0.707106781186548,0.707106781186548,0.));
#1518=DIRECTION('center_axis',(0.,0.,1.));
#1519=DIRECTION('ref_axis',(0.707106781186548,0.707106781186548,0.));
#1520=DIRECTION('',(0.,0.,1.));
#1521=DIRECTION('center_axis',(0.,0.,1.));
#1522=DIRECTION('ref_axis',(0.707106781186548,0.707106781186548,0.));
#1523=DIRECTION('',(0.,0.,-1.));
#1524=DIRECTION('center_axis',(1.,0.,0.));
#1525=DIRECTION('ref_axis',(0.,0.,1.));
#1526=DIRECTION('',(0.,-1.,0.));
#1527=DIRECTION('',(0.,0.,-1.));
#1528=DIRECTION('',(0.,-1.,0.));
#1529=DIRECTION('center_axis',(0.,0.,1.));
#1530=DIRECTION('ref_axis',(0.707106781186546,-0.707106781186549,0.));
#1531=DIRECTION('center_axis',(0.,0.,1.));
#1532=DIRECTION('ref_axis',(0.707106781186546,-0.707106781186549,0.));
#1533=DIRECTION('',(0.,0.,1.));
#1534=DIRECTION('center_axis',(0.,0.,1.));
#1535=DIRECTION('ref_axis',(0.707106781186546,-0.707106781186549,0.));
#1536=DIRECTION('center_axis',(0.,0.,1.));
#1537=DIRECTION('ref_axis',(1.,0.,0.));
#1538=DIRECTION('',(1.,0.,0.));
#1539=DIRECTION('center_axis',(0.,0.,1.));
#1540=DIRECTION('ref_axis',(-0.707106781186548,0.707106781186548,0.));
#1541=DIRECTION('',(0.,1.,0.));
#1542=DIRECTION('',(1.,0.,0.));
#1543=DIRECTION('',(0.,1.,0.));
#1544=DIRECTION('center_axis',(0.,0.,1.));
#1545=DIRECTION('ref_axis',(0.707106781186551,0.707106781186544,0.));
#1546=DIRECTION('',(1.,0.,0.));
#1547=DIRECTION('center_axis',(0.,0.,1.));
#1548=DIRECTION('ref_axis',(-0.707106781186549,0.707106781186546,0.));
#1549=DIRECTION('',(0.,1.,0.));
#1550=DIRECTION('center_axis',(0.,0.,1.));
#1551=DIRECTION('ref_axis',(1.,0.,0.));
#1552=DIRECTION('center_axis',(0.,0.,1.));
#1553=DIRECTION('ref_axis',(-0.962941468685268,0.269710451941075,0.));
#1554=DIRECTION('center_axis',(0.,0.,1.));
#1555=DIRECTION('ref_axis',(0.,-1.,0.));
#1556=DIRECTION('',(1.,0.,0.));
#1557=DIRECTION('center_axis',(0.,0.,1.));
#1558=DIRECTION('ref_axis',(0.,-1.,0.));
#1559=DIRECTION('center_axis',(0.,0.,1.));
#1560=DIRECTION('ref_axis',(0.8029197542327,0.596087131435414,0.));
#1561=DIRECTION('center_axis',(0.,0.,1.));
#1562=DIRECTION('ref_axis',(1.,0.,0.));
#1563=DIRECTION('center_axis',(0.,0.,1.));
#1564=DIRECTION('ref_axis',(-1.,0.,0.));
#1565=DIRECTION('',(0.,1.,0.));
#1566=DIRECTION('center_axis',(0.,0.,1.));
#1567=DIRECTION('ref_axis',(-1.,0.,0.));
#1568=DIRECTION('center_axis',(0.,0.,1.));
#1569=DIRECTION('ref_axis',(1.,0.,0.));
#1570=DIRECTION('center_axis',(0.,0.,1.));
#1571=DIRECTION('ref_axis',(0.802919754232699,-0.596087131435416,0.));
#1572=DIRECTION('center_axis',(0.,0.,-1.));
#1573=DIRECTION('ref_axis',(0.,-1.,0.));
#1574=DIRECTION('',(1.,0.,0.));
#1575=DIRECTION('center_axis',(0.,0.,1.));
#1576=DIRECTION('ref_axis',(0.,1.,0.));
#1577=DIRECTION('center_axis',(0.,0.,1.));
#1578=DIRECTION('ref_axis',(0.290907735227132,-0.956751111619433,0.));
#1579=DIRECTION('center_axis',(0.,0.,1.));
#1580=DIRECTION('ref_axis',(1.,0.,0.));
#1581=DIRECTION('',(0.,1.,0.));
#1582=DIRECTION('center_axis',(0.,0.,1.));
#1583=DIRECTION('ref_axis',(-0.707106781186548,-0.707106781186548,0.));
#1584=DIRECTION('',(1.,0.,0.));
#1585=DIRECTION('center_axis',(0.,0.,1.));
#1586=DIRECTION('ref_axis',(0.707106781186549,-0.707106781186546,0.));
#1587=DIRECTION('',(0.,1.,0.));
#1588=DIRECTION('',(1.,0.,0.));
#1589=DIRECTION('',(0.,1.,0.));
#1590=DIRECTION('center_axis',(0.,0.,1.));
#1591=DIRECTION('ref_axis',(-0.707106781186546,-0.707106781186549,0.));
#1592=DIRECTION('',(1.,0.,0.));
#1593=DIRECTION('center_axis',(0.,0.,-1.));
#1594=DIRECTION('ref_axis',(1.,0.,0.));
#1595=DIRECTION('center_axis',(0.,0.,-1.));
#1596=DIRECTION('ref_axis',(1.,0.,0.));
#1597=DIRECTION('center_axis',(0.,0.,-1.));
#1598=DIRECTION('ref_axis',(1.,0.,0.));
#1599=DIRECTION('center_axis',(0.,0.,-1.));
#1600=DIRECTION('ref_axis',(1.,0.,0.));
#1601=DIRECTION('center_axis',(0.,0.,-1.));
#1602=DIRECTION('ref_axis',(1.,0.,0.));
#1603=DIRECTION('center_axis',(0.,0.,-1.));
#1604=DIRECTION('ref_axis',(1.,0.,0.));
#1605=DIRECTION('center_axis',(0.,0.,-1.));
#1606=DIRECTION('ref_axis',(1.,0.,0.));
#1607=DIRECTION('center_axis',(0.,0.,-1.));
#1608=DIRECTION('ref_axis',(1.,0.,0.));
#1609=DIRECTION('center_axis',(0.,0.,-1.));
#1610=DIRECTION('ref_axis',(1.,0.,0.));
#1611=DIRECTION('center_axis',(0.,0.,-1.));
#1612=DIRECTION('ref_axis',(1.,0.,0.));
#1613=DIRECTION('center_axis',(0.,1.,0.));
#1614=DIRECTION('ref_axis',(0.,0.,1.));
#1615=DIRECTION('',(-1.,0.,0.));
#1616=DIRECTION('',(0.,0.,1.));
#1617=DIRECTION('center_axis',(0.,1.,0.));
#1618=DIRECTION('ref_axis',(0.,0.,1.));
#1619=DIRECTION('',(0.,0.,-1.));
#1620=DIRECTION('',(-1.,0.,0.));
#1621=DIRECTION('center_axis',(0.,0.,1.));
#1622=DIRECTION('ref_axis',(-0.707106781186548,-0.707106781186548,0.));
#1623=DIRECTION('',(0.,0.,1.));
#1624=DIRECTION('center_axis',(0.,0.,-1.));
#1625=DIRECTION('ref_axis',(-0.707106781186548,-0.707106781186548,0.));
#1626=DIRECTION('',(0.,0.,-1.));
#1627=DIRECTION('center_axis',(0.,1.,0.));
#1628=DIRECTION('ref_axis',(0.,0.,1.));
#1629=DIRECTION('',(-1.,0.,0.));
#1630=DIRECTION('',(0.,0.,1.));
#1631=DIRECTION('center_axis',(1.,0.,0.));
#1632=DIRECTION('ref_axis',(0.,0.,1.));
#1633=DIRECTION('',(0.,0.,1.));
#1634=DIRECTION('',(0.,1.,0.));
#1635=DIRECTION('',(0.,0.,-1.));
#1636=DIRECTION('',(0.,0.,-1.));
#1637=DIRECTION('',(0.,1.,0.));
#1638=DIRECTION('',(0.,0.,-1.));
#1639=DIRECTION('',(0.,1.,0.));
#1640=DIRECTION('',(0.,0.,-1.));
#1641=DIRECTION('',(0.,1.,0.));
#1642=DIRECTION('center_axis',(0.,0.,1.));
#1643=DIRECTION('ref_axis',(-0.707106781186546,-0.707106781186549,0.));
#1644=DIRECTION('',(0.,0.,1.));
#1645=DIRECTION('center_axis',(0.,0.,-1.));
#1646=DIRECTION('ref_axis',(-0.707106781186546,-0.707106781186549,0.));
#1647=DIRECTION('center_axis',(1.,0.,0.));
#1648=DIRECTION('ref_axis',(0.,0.,1.));
#1649=DIRECTION('',(0.,0.,1.));
#1650=DIRECTION('',(0.,1.,0.));
#1651=DIRECTION('center_axis',(0.,0.,1.));
#1652=DIRECTION('ref_axis',(0.707106781186549,-0.707106781186546,0.));
#1653=DIRECTION('center_axis',(0.,0.,-1.));
#1654=DIRECTION('ref_axis',(0.707106781186549,-0.707106781186546,0.));
#1655=DIRECTION('',(0.,0.,-1.));
#1656=DIRECTION('center_axis',(1.,0.,0.));
#1657=DIRECTION('ref_axis',(0.,0.,1.));
#1658=DIRECTION('',(0.,1.,0.));
#1659=DIRECTION('',(0.,0.,1.));
#1660=DIRECTION('center_axis',(0.,0.,1.));
#1661=DIRECTION('ref_axis',(0.707106781186551,0.707106781186544,0.));
#1662=DIRECTION('',(0.,0.,1.));
#1663=DIRECTION('center_axis',(0.,0.,-1.));
#1664=DIRECTION('ref_axis',(0.707106781186551,0.707106781186544,0.));
#1665=DIRECTION('',(0.,0.,-1.));
#1666=DIRECTION('center_axis',(0.,1.,0.));
#1667=DIRECTION('ref_axis',(0.,0.,1.));
#1668=DIRECTION('',(-1.,0.,0.));
#1669=DIRECTION('',(0.,0.,1.));
#1670=DIRECTION('center_axis',(1.,0.,0.));
#1671=DIRECTION('ref_axis',(0.,0.,1.));
#1672=DIRECTION('',(0.,0.,1.));
#1673=DIRECTION('',(0.,1.,0.));
#1674=DIRECTION('center_axis',(0.,0.,1.));
#1675=DIRECTION('ref_axis',(-0.707106781186548,0.707106781186548,0.));
#1676=DIRECTION('center_axis',(0.,0.,-1.));
#1677=DIRECTION('ref_axis',(-0.707106781186548,0.707106781186548,0.));
#1678=DIRECTION('',(0.,0.,-1.));
#1679=DIRECTION('center_axis',(1.,0.,0.));
#1680=DIRECTION('ref_axis',(0.,0.,1.));
#1681=DIRECTION('',(0.,1.,0.));
#1682=DIRECTION('',(0.,0.,1.));
#1683=DIRECTION('center_axis',(0.,0.,1.));
#1684=DIRECTION('ref_axis',(-0.707106781186549,0.707106781186546,0.));
#1685=DIRECTION('center_axis',(0.,0.,-1.));
#1686=DIRECTION('ref_axis',(-0.707106781186549,0.707106781186546,0.));
#1687=DIRECTION('center_axis',(1.,0.,0.));
#1688=DIRECTION('ref_axis',(0.,0.,1.));
#1689=DIRECTION('',(0.,1.,0.));
#1690=DIRECTION('',(0.,0.,1.));
#1691=DIRECTION('',(0.,1.,0.));
#1692=DIRECTION('',(0.,0.,1.));
#1693=DIRECTION('',(0.,1.,0.));
#1694=DIRECTION('',(0.,0.,-1.));
#1695=DIRECTION('',(0.,1.,0.));
#1696=DIRECTION('',(0.,0.,-1.));
#1697=DIRECTION('center_axis',(0.,0.,1.));
#1698=DIRECTION('ref_axis',(0.802919754232699,-0.596087131435416,0.));
#1699=DIRECTION('center_axis',(0.,0.,1.));
#1700=DIRECTION('ref_axis',(0.802919754232699,-0.596087131435416,0.));
#1701=DIRECTION('',(0.,0.,1.));
#1702=DIRECTION('',(0.,0.,-1.));
#1703=DIRECTION('center_axis',(0.,0.,1.));
#1704=DIRECTION('ref_axis',(1.,0.,0.));
#1705=DIRECTION('center_axis',(0.,0.,1.));
#1706=DIRECTION('ref_axis',(1.,0.,0.));
#1707=DIRECTION('center_axis',(0.,0.,1.));
#1708=DIRECTION('ref_axis',(-1.,0.,0.));
#1709=DIRECTION('',(0.,1.,0.));
#1710=DIRECTION('center_axis',(0.,0.,1.));
#1711=DIRECTION('ref_axis',(-1.,0.,0.));
#1712=DIRECTION('center_axis',(0.,0.,1.));
#1713=DIRECTION('ref_axis',(1.,0.,0.));
#1714=DIRECTION('center_axis',(0.,0.,1.));
#1715=DIRECTION('ref_axis',(0.8029197542327,0.596087131435414,0.));
#1716=DIRECTION('center_axis',(0.,0.,1.));
#1717=DIRECTION('ref_axis',(0.,-1.,0.));
#1718=DIRECTION('',(1.,0.,0.));
#1719=DIRECTION('center_axis',(0.,0.,1.));
#1720=DIRECTION('ref_axis',(0.,-1.,0.));
#1721=DIRECTION('center_axis',(0.,0.,1.));
#1722=DIRECTION('ref_axis',(-0.962941468685268,0.269710451941075,0.));
#1723=DIRECTION('center_axis',(0.,0.,1.));
#1724=DIRECTION('ref_axis',(1.,0.,0.));
#1725=DIRECTION('center_axis',(0.,0.,1.));
#1726=DIRECTION('ref_axis',(1.,0.,0.));
#1727=DIRECTION('center_axis',(0.,0.,1.));
#1728=DIRECTION('ref_axis',(0.290907735227132,-0.956751111619433,0.));
#1729=DIRECTION('center_axis',(0.,0.,1.));
#1730=DIRECTION('ref_axis',(0.,1.,0.));
#1731=DIRECTION('',(1.,0.,0.));
#1732=DIRECTION('center_axis',(0.,0.,-1.));
#1733=DIRECTION('ref_axis',(0.,-1.,0.));
#1734=DIRECTION('center_axis',(0.,0.,1.));
#1735=DIRECTION('ref_axis',(0.,-1.,0.));
#1736=DIRECTION('',(0.,1.,0.));
#1737=DIRECTION('center_axis',(0.,0.,-1.));
#1738=DIRECTION('ref_axis',(0.,-1.,0.));
#1739=DIRECTION('',(1.,0.,0.));
#1740=DIRECTION('center_axis',(0.,0.,1.));
#1741=DIRECTION('ref_axis',(0.,-1.,0.));
#1742=DIRECTION('',(0.,1.,0.));
#1743=DIRECTION('center_axis',(0.,0.,-1.));
#1744=DIRECTION('ref_axis',(0.,-1.,0.));
#1745=DIRECTION('',(1.,0.,0.));
#1746=DIRECTION('center_axis',(0.,0.,-1.));
#1747=DIRECTION('ref_axis',(-0.76179160339109,0.647822161555802,0.));
#1748=DIRECTION('',(0.,0.,1.));
#1749=DIRECTION('center_axis',(0.,0.,-1.));
#1750=DIRECTION('ref_axis',(-1.,0.,0.));
#1751=DIRECTION('',(0.,0.,-1.));
#1752=DIRECTION('center_axis',(1.,0.,0.));
#1753=DIRECTION('ref_axis',(0.,0.,1.));
#1754=DIRECTION('',(0.,0.,1.));
#1755=DIRECTION('center_axis',(0.,0.,1.));
#1756=DIRECTION('ref_axis',(-1.,0.,0.));
#1757=DIRECTION('',(0.,0.,-1.));
#1758=DIRECTION('center_axis',(0.,0.,-1.));
#1759=DIRECTION('ref_axis',(-0.76179160339109,-0.647822161555802,0.));
#1760=DIRECTION('',(0.,0.,1.));
#1761=DIRECTION('center_axis',(0.,0.,1.));
#1762=DIRECTION('ref_axis',(0.8029197542327,0.596087131435414,0.));
#1763=DIRECTION('',(0.,0.,-1.));
#1764=DIRECTION('center_axis',(0.,0.,1.));
#1765=DIRECTION('ref_axis',(1.,0.,0.));
#1766=DIRECTION('',(0.,0.,-1.));
#1767=DIRECTION('center_axis',(0.,0.,-1.));
#1768=DIRECTION('ref_axis',(0.,1.,0.));
#1769=DIRECTION('',(0.,0.,1.));
#1770=DIRECTION('',(0.,0.,-1.));
#1771=DIRECTION('center_axis',(0.,0.,-1.));
#1772=DIRECTION('ref_axis',(1.,0.,0.));
#1773=DIRECTION('center_axis',(0.,0.,-1.));
#1774=DIRECTION('ref_axis',(1.,0.,0.));
#1775=DIRECTION('',(0.,0.,1.));
#1776=DIRECTION('center_axis',(0.,0.,-1.));
#1777=DIRECTION('ref_axis',(1.,0.,0.));
#1778=DIRECTION('',(0.,0.,-1.));
#1779=DIRECTION('center_axis',(0.,0.,1.));
#1780=DIRECTION('ref_axis',(0.,-1.,0.));
#1781=DIRECTION('',(0.,0.,1.));
#1782=DIRECTION('center_axis',(0.,1.,0.));
#1783=DIRECTION('ref_axis',(0.,0.,1.));
#1784=DIRECTION('',(0.,0.,1.));
#1785=DIRECTION('center_axis',(0.,1.,0.));
#1786=DIRECTION('ref_axis',(0.,0.,1.));
#1787=DIRECTION('',(-1.,0.,0.));
#1788=DIRECTION('center_axis',(0.,1.,0.));
#1789=DIRECTION('ref_axis',(0.,0.,1.));
#1790=DIRECTION('',(1.,0.,0.));
#1791=DIRECTION('',(-1.,0.,0.));
#1792=DIRECTION('',(0.,0.,1.));
#1793=DIRECTION('center_axis',(1.,0.,0.));
#1794=DIRECTION('ref_axis',(0.,0.,1.));
#1795=DIRECTION('',(0.,0.,1.));
#1796=DIRECTION('',(0.,-1.,0.));
#1797=DIRECTION('',(0.,-1.,0.));
#1798=DIRECTION('center_axis',(0.,1.,0.));
#1799=DIRECTION('ref_axis',(0.,0.,1.));
#1800=DIRECTION('',(1.,0.,0.));
#1801=DIRECTION('',(-1.,0.,0.));
#1802=DIRECTION('center_axis',(0.,1.,0.));
#1803=DIRECTION('ref_axis',(0.,0.,1.));
#1804=DIRECTION('',(-1.,0.,0.));
#1805=DIRECTION('center_axis',(0.,1.,0.));
#1806=DIRECTION('ref_axis',(0.,0.,1.));
#1807=DIRECTION('',(1.,0.,0.));
#1808=DIRECTION('',(-1.,0.,0.));
#1809=DIRECTION('center_axis',(0.,0.,1.));
#1810=DIRECTION('ref_axis',(1.,0.,0.));
#1811=DIRECTION('',(1.,0.,0.));
#1812=DIRECTION('center_axis',(0.,1.,0.));
#1813=DIRECTION('ref_axis',(0.,0.,1.));
#1814=DIRECTION('',(-1.,0.,0.));
#1815=DIRECTION('center_axis',(0.,0.,1.));
#1816=DIRECTION('ref_axis',(1.,0.,0.));
#1817=DIRECTION('center_axis',(0.,0.,1.));
#1818=DIRECTION('ref_axis',(1.,0.,0.));
#1819=DIRECTION('center_axis',(0.,0.,-1.));
#1820=DIRECTION('ref_axis',(1.,0.,0.));
#1821=DIRECTION('center_axis',(0.,0.,-1.));
#1822=DIRECTION('ref_axis',(1.,0.,0.));
#1823=DIRECTION('center_axis',(0.,0.,-1.));
#1824=DIRECTION('ref_axis',(1.,0.,0.));
#1825=DIRECTION('center_axis',(0.,0.,-1.));
#1826=DIRECTION('ref_axis',(1.,0.,0.));
#1827=DIRECTION('center_axis',(0.,0.,-1.));
#1828=DIRECTION('ref_axis',(1.,0.,0.));
#1829=DIRECTION('center_axis',(0.,0.,-1.));
#1830=DIRECTION('ref_axis',(1.,0.,0.));
#1831=DIRECTION('center_axis',(0.,0.,1.));
#1832=DIRECTION('ref_axis',(1.,0.,0.));
#1833=DIRECTION('center_axis',(0.,1.,0.));
#1834=DIRECTION('ref_axis',(0.,0.,1.));
#1835=DIRECTION('',(0.,0.,1.));
#1836=DIRECTION('center_axis',(0.,0.,1.));
#1837=DIRECTION('ref_axis',(1.,0.,0.));
#1838=DIRECTION('center_axis',(0.,0.,-1.));
#1839=DIRECTION('ref_axis',(1.,0.,0.));
#1840=DIRECTION('',(0.,0.,-1.));
#1841=DIRECTION('center_axis',(0.,0.,-1.));
#1842=DIRECTION('ref_axis',(1.,0.,0.));
#1843=DIRECTION('',(0.,0.,-1.));
#1844=DIRECTION('center_axis',(0.,0.,-1.));
#1845=DIRECTION('ref_axis',(1.,0.,0.));
#1846=DIRECTION('center_axis',(0.,0.,-1.));
#1847=DIRECTION('ref_axis',(1.,0.,0.));
#1848=DIRECTION('',(0.,0.,-1.));
#1849=DIRECTION('center_axis',(0.,0.,-1.));
#1850=DIRECTION('ref_axis',(1.,0.,0.));
#1851=DIRECTION('',(0.,0.,-1.));
#1852=DIRECTION('center_axis',(0.,0.,-1.));
#1853=DIRECTION('ref_axis',(1.,0.,0.));
#1854=DIRECTION('',(0.,0.,-1.));
#1855=DIRECTION('center_axis',(0.,0.,-1.));
#1856=DIRECTION('ref_axis',(1.,0.,0.));
#1857=DIRECTION('center_axis',(0.,0.,-1.));
#1858=DIRECTION('ref_axis',(1.,0.,0.));
#1859=DIRECTION('',(0.,0.,-1.));
#1860=DIRECTION('center_axis',(0.,0.,-1.));
#1861=DIRECTION('ref_axis',(1.,0.,0.));
#1862=DIRECTION('center_axis',(0.,0.,-1.));
#1863=DIRECTION('ref_axis',(1.,0.,0.));
#1864=DIRECTION('',(0.,0.,-1.));
#1865=DIRECTION('center_axis',(0.,0.,-1.));
#1866=DIRECTION('ref_axis',(1.,0.,0.));
#1867=DIRECTION('',(0.,0.,-1.));
#1868=DIRECTION('center_axis',(0.,0.,-1.));
#1869=DIRECTION('ref_axis',(1.,0.,0.));
#1870=DIRECTION('',(0.,0.,-1.));
#1871=DIRECTION('center_axis',(0.,0.,-1.));
#1872=DIRECTION('ref_axis',(1.,0.,0.));
#1873=DIRECTION('center_axis',(0.,0.,-1.));
#1874=DIRECTION('ref_axis',(1.,0.,0.));
#1875=DIRECTION('',(0.,0.,-1.));
#1876=DIRECTION('center_axis',(0.,0.,1.));
#1877=DIRECTION('ref_axis',(1.,0.,0.));
#1878=DIRECTION('',(0.,0.,1.));
#1879=DIRECTION('center_axis',(0.,0.,1.));
#1880=DIRECTION('ref_axis',(0.,-1.,0.));
#1881=DIRECTION('',(0.,0.,1.));
#1882=DIRECTION('center_axis',(1.,0.,0.));
#1883=DIRECTION('ref_axis',(0.,0.,1.));
#1884=DIRECTION('',(0.,1.,0.));
#1885=DIRECTION('',(0.,0.,1.));
#1886=DIRECTION('center_axis',(0.,0.,1.));
#1887=DIRECTION('ref_axis',(1.,0.,0.));
#1888=DIRECTION('center_axis',(0.,0.,-1.));
#1889=DIRECTION('ref_axis',(0.,-1.,0.));
#1890=DIRECTION('',(0.,0.,1.));
#1891=DIRECTION('center_axis',(0.,1.,0.));
#1892=DIRECTION('ref_axis',(0.,0.,1.));
#1893=DIRECTION('',(1.,0.,0.));
#1894=DIRECTION('',(0.,0.,1.));
#1895=DIRECTION('center_axis',(0.,0.,1.));
#1896=DIRECTION('ref_axis',(-1.,0.,0.));
#1897=DIRECTION('center_axis',(0.,0.,1.));
#1898=DIRECTION('ref_axis',(0.,-1.,0.));
#1899=DIRECTION('',(0.,0.,1.));
#1900=DIRECTION('center_axis',(1.,0.,0.));
#1901=DIRECTION('ref_axis',(0.,0.,1.));
#1902=DIRECTION('',(0.,1.,0.));
#1903=DIRECTION('',(0.,0.,1.));
#1904=DIRECTION('center_axis',(0.,0.,1.));
#1905=DIRECTION('ref_axis',(-1.,0.,0.));
#1906=DIRECTION('center_axis',(0.,0.,-1.));
#1907=DIRECTION('ref_axis',(0.,-1.,0.));
#1908=DIRECTION('',(0.,0.,1.));
#1909=DIRECTION('center_axis',(0.,1.,0.));
#1910=DIRECTION('ref_axis',(0.,0.,1.));
#1911=DIRECTION('',(1.,0.,0.));
#1912=DIRECTION('center_axis',(0.,0.,1.));
#1913=DIRECTION('ref_axis',(1.,0.,0.));
#1914=DIRECTION('center_axis',(0.,0.,1.));
#1915=DIRECTION('ref_axis',(1.,0.,0.));
#1916=DIRECTION('center_axis',(0.,0.,1.));
#1917=DIRECTION('ref_axis',(1.,0.,0.));
#1918=DIRECTION('center_axis',(0.,0.,1.));
#1919=DIRECTION('ref_axis',(1.,0.,0.));
#1920=DIRECTION('center_axis',(0.,0.,1.));
#1921=DIRECTION('ref_axis',(1.,0.,0.));
#1922=DIRECTION('',(0.,0.,1.));
#1923=DIRECTION('',(1.,0.,0.));
#1924=CARTESIAN_POINT('',(0.,0.,0.));
#1925=CARTESIAN_POINT('',(0.,0.,0.));
#1926=CARTESIAN_POINT('Origin',(111.9,83.5,8.));
#1927=CARTESIAN_POINT('',(113.9,83.5,8.));
#1928=CARTESIAN_POINT('',(111.9,85.5,8.));
#1929=CARTESIAN_POINT('Origin',(111.9,83.5,8.));
#1930=CARTESIAN_POINT('',(113.9,83.5,9.7));
#1931=CARTESIAN_POINT('',(113.9,83.5,8.));
#1932=CARTESIAN_POINT('',(111.9,85.5,9.7));
#1933=CARTESIAN_POINT('Origin',(111.9,83.5,9.7));
#1934=CARTESIAN_POINT('',(111.9,85.5,8.));
#1935=CARTESIAN_POINT('Origin',(113.9,2.5,8.));
#1936=CARTESIAN_POINT('',(113.9,4.5,8.));
#1937=CARTESIAN_POINT('',(113.9,2.5,8.));
#1938=CARTESIAN_POINT('',(113.9,4.5,9.7));
#1939=CARTESIAN_POINT('',(113.9,4.5,8.));
#1940=CARTESIAN_POINT('',(113.9,1.25,9.7));
#1941=CARTESIAN_POINT('Origin',(111.9,4.5,8.));
#1942=CARTESIAN_POINT('',(111.9,2.5,8.));
#1943=CARTESIAN_POINT('Origin',(111.9,4.5,8.));
#1944=CARTESIAN_POINT('',(111.9,2.5,9.7));
#1945=CARTESIAN_POINT('',(111.9,2.5,8.));
#1946=CARTESIAN_POINT('Origin',(111.9,4.5,9.7));
#1947=CARTESIAN_POINT('Origin',(2.5,2.5,8.));
#1948=CARTESIAN_POINT('',(68.95,85.5,8.));
#1949=CARTESIAN_POINT('',(2.5,85.5,8.));
#1950=CARTESIAN_POINT('',(66.95,83.5,8.));
#1951=CARTESIAN_POINT('Origin',(68.95,83.5,8.));
#1952=CARTESIAN_POINT('',(66.95,74.,8.));
#1953=CARTESIAN_POINT('',(66.95,74.,8.));
#1954=CARTESIAN_POINT('',(65.45,74.,8.));
#1955=CARTESIAN_POINT('',(65.45,74.,8.));
#1956=CARTESIAN_POINT('',(65.45,83.5,8.));
#1957=CARTESIAN_POINT('',(65.45,74.,8.));
#1958=CARTESIAN_POINT('',(63.45,85.5,8.));
#1959=CARTESIAN_POINT('Origin',(63.45,83.5,8.));
#1960=CARTESIAN_POINT('',(4.5,85.5,8.));
#1961=CARTESIAN_POINT('',(2.5,85.5,8.));
#1962=CARTESIAN_POINT('',(2.5,83.5,8.));
#1963=CARTESIAN_POINT('Origin',(4.5,83.5,8.));
#1964=CARTESIAN_POINT('',(2.5,67.7835680867602,8.));
#1965=CARTESIAN_POINT('',(2.5,2.5,8.));
#1966=CARTESIAN_POINT('',(5.37179487179488,68.7544119486022,8.));
#1967=CARTESIAN_POINT('Origin',(4.1,67.7835680867602,8.));
#1968=CARTESIAN_POINT('',(9.45706976084601,70.5923076923077,8.));
#1969=CARTESIAN_POINT('Origin',(7.2,70.15,8.));
#1970=CARTESIAN_POINT('',(11.0272052466519,72.5,8.));
#1971=CARTESIAN_POINT('Origin',(11.0272052466519,70.9,8.));
#1972=CARTESIAN_POINT('',(95.2,72.5,8.));
#1973=CARTESIAN_POINT('',(3.2,72.5,8.));
#1974=CARTESIAN_POINT('',(95.8381656283441,72.465965523769,8.));
#1975=CARTESIAN_POINT('Origin',(95.2,66.5,8.));
#1976=CARTESIAN_POINT('',(97.2400955623437,70.5775885085702,8.));
#1977=CARTESIAN_POINT('Origin',(95.6679881274524,70.8750413840973,8.));
#1978=CARTESIAN_POINT('',(99.5589743589744,67.85075620584,8.));
#1979=CARTESIAN_POINT('Origin',(99.5,70.15,8.));
#1980=CARTESIAN_POINT('',(101.2,66.2512822620764,8.));
#1981=CARTESIAN_POINT('Origin',(99.6000000000001,66.2512822620764,8.));
#1982=CARTESIAN_POINT('',(101.2,21.7487177379236,8.));
#1983=CARTESIAN_POINT('',(101.2,15.5,8.));
#1984=CARTESIAN_POINT('',(99.5589743589744,20.1492437941601,8.));
#1985=CARTESIAN_POINT('Origin',(99.6000000000001,21.7487177379236,8.));
#1986=CARTESIAN_POINT('',(97.2400955623437,17.4224114914298,8.));
#1987=CARTESIAN_POINT('Origin',(99.5,17.85,8.));
#1988=CARTESIAN_POINT('',(95.8381656283441,15.534034476231,8.));
#1989=CARTESIAN_POINT('Origin',(95.6679881274524,17.1249586159027,8.));
#1990=CARTESIAN_POINT('',(95.2,15.5,8.));
#1991=CARTESIAN_POINT('Origin',(95.2,21.5,8.));
#1992=CARTESIAN_POINT('',(11.0272052466519,15.5,8.));
#1993=CARTESIAN_POINT('',(3.2,15.5,8.));
#1994=CARTESIAN_POINT('',(9.45706976084601,17.4076923076923,8.));
#1995=CARTESIAN_POINT('Origin',(11.0272052466519,17.1,8.));
#1996=CARTESIAN_POINT('',(5.37179487179487,19.2455880513979,8.));
#1997=CARTESIAN_POINT('Origin',(7.2,17.85,8.));
#1998=CARTESIAN_POINT('',(2.5,20.2164319132398,8.));
#1999=CARTESIAN_POINT('Origin',(4.1,20.2164319132398,8.));
#2000=CARTESIAN_POINT('',(2.5,4.5,8.));
#2001=CARTESIAN_POINT('',(2.5,2.5,8.));
#2002=CARTESIAN_POINT('',(4.5,2.5,8.));
#2003=CARTESIAN_POINT('Origin',(4.5,4.5,8.));
#2004=CARTESIAN_POINT('',(63.45,2.5,8.));
#2005=CARTESIAN_POINT('',(2.5,2.5,8.));
#2006=CARTESIAN_POINT('',(65.45,4.5,8.));
#2007=CARTESIAN_POINT('Origin',(63.45,4.5,8.));
#2008=CARTESIAN_POINT('',(65.45,14.,8.));
#2009=CARTESIAN_POINT('',(65.45,2.5,8.));
#2010=CARTESIAN_POINT('',(66.95,14.,8.));
#2011=CARTESIAN_POINT('',(65.45,14.,8.));
#2012=CARTESIAN_POINT('',(66.95,4.5,8.));
#2013=CARTESIAN_POINT('',(66.95,2.5,8.));
#2014=CARTESIAN_POINT('',(68.95,2.5,8.));
#2015=CARTESIAN_POINT('Origin',(68.95,4.5,8.));
#2016=CARTESIAN_POINT('',(2.5,2.5,8.));
#2017=CARTESIAN_POINT('',(3.,5.,8.));
#2018=CARTESIAN_POINT('Origin',(5.,5.,8.));
#2019=CARTESIAN_POINT('',(5.95,17.85,8.));
#2020=CARTESIAN_POINT('Origin',(7.2,17.85,8.));
#2021=CARTESIAN_POINT('',(51.2,5.,8.));
#2022=CARTESIAN_POINT('Origin',(53.2,5.,8.));
#2023=CARTESIAN_POINT('',(99.4,5.,8.));
#2024=CARTESIAN_POINT('Origin',(101.4,5.,8.));
#2025=CARTESIAN_POINT('',(98.25,17.85,8.));
#2026=CARTESIAN_POINT('Origin',(99.5,17.85,8.));
#2027=CARTESIAN_POINT('',(5.95,70.15,8.));
#2028=CARTESIAN_POINT('Origin',(7.2,70.15,8.));
#2029=CARTESIAN_POINT('',(3.,83.,8.));
#2030=CARTESIAN_POINT('Origin',(5.,83.,8.));
#2031=CARTESIAN_POINT('',(51.2,83.,8.));
#2032=CARTESIAN_POINT('Origin',(53.2,83.,8.));
#2033=CARTESIAN_POINT('',(98.25,70.15,8.));
#2034=CARTESIAN_POINT('Origin',(99.5,70.15,8.));
#2035=CARTESIAN_POINT('',(99.4,83.,8.));
#2036=CARTESIAN_POINT('Origin',(101.4,83.,8.));
#2037=CARTESIAN_POINT('Origin',(2.5,85.5,8.));
#2038=CARTESIAN_POINT('',(68.95,85.5,9.7));
#2039=CARTESIAN_POINT('',(1.25,85.5,9.7));
#2040=CARTESIAN_POINT('',(68.95,85.5,8.));
#2041=CARTESIAN_POINT('Origin',(2.5,2.5,8.));
#2042=CARTESIAN_POINT('',(68.95,2.5,9.7));
#2043=CARTESIAN_POINT('',(68.95,2.5,8.));
#2044=CARTESIAN_POINT('',(1.25,2.5,9.7));
#2045=CARTESIAN_POINT('Origin',(4.5,4.5,8.));
#2046=CARTESIAN_POINT('',(2.5,4.5,9.7));
#2047=CARTESIAN_POINT('',(2.5,4.5,8.));
#2048=CARTESIAN_POINT('',(4.5,2.5,9.7));
#2049=CARTESIAN_POINT('Origin',(4.5,4.5,9.7));
#2050=CARTESIAN_POINT('',(4.5,2.5,8.));
#2051=CARTESIAN_POINT('Origin',(2.5,2.5,8.));
#2052=CARTESIAN_POINT('',(63.45,2.5,9.7));
#2053=CARTESIAN_POINT('',(1.25,2.5,9.7));
#2054=CARTESIAN_POINT('',(63.45,2.5,8.));
#2055=CARTESIAN_POINT('Origin',(2.5,2.5,8.));
#2056=CARTESIAN_POINT('',(2.5,20.2164319132398,3.));
#2057=CARTESIAN_POINT('',(2.5,20.2164319132398,3.));
#2058=CARTESIAN_POINT('',(2.5,67.7835680867602,3.));
#2059=CARTESIAN_POINT('',(2.5,14.,3.));
#2060=CARTESIAN_POINT('',(2.5,67.7835680867602,3.));
#2061=CARTESIAN_POINT('',(2.5,83.5,9.7));
#2062=CARTESIAN_POINT('',(2.5,83.5,8.));
#2063=CARTESIAN_POINT('',(2.5,50.05,9.7));
#2064=CARTESIAN_POINT('',(2.5,1.25,9.7));
#2065=CARTESIAN_POINT('',(2.5,50.05,7.));
#2066=CARTESIAN_POINT('',(2.5,50.05,7.75));
#2067=CARTESIAN_POINT('',(2.5,37.95,7.));
#2068=CARTESIAN_POINT('',(2.5,19.75,7.));
#2069=CARTESIAN_POINT('',(2.5,37.95,9.7));
#2070=CARTESIAN_POINT('',(2.5,37.95,7.75));
#2071=CARTESIAN_POINT('',(2.5,1.25,9.7));
#2072=CARTESIAN_POINT('Origin',(68.95,4.5,8.));
#2073=CARTESIAN_POINT('',(66.95,4.5,9.7));
#2074=CARTESIAN_POINT('',(66.95,4.5,8.));
#2075=CARTESIAN_POINT('Origin',(68.95,4.5,9.7));
#2076=CARTESIAN_POINT('Origin',(66.95,2.5,8.));
#2077=CARTESIAN_POINT('',(66.95,14.,9.7));
#2078=CARTESIAN_POINT('',(66.95,14.,8.));
#2079=CARTESIAN_POINT('',(66.95,1.25,9.7));
#2080=CARTESIAN_POINT('Origin',(63.45,4.5,8.));
#2081=CARTESIAN_POINT('',(65.45,4.5,9.7));
#2082=CARTESIAN_POINT('Origin',(63.45,4.5,9.7));
#2083=CARTESIAN_POINT('',(65.45,4.5,8.));
#2084=CARTESIAN_POINT('Origin',(65.45,2.5,8.));
#2085=CARTESIAN_POINT('',(65.45,14.,9.7));
#2086=CARTESIAN_POINT('',(65.45,1.25,9.7));
#2087=CARTESIAN_POINT('',(65.45,14.,8.));
#2088=CARTESIAN_POINT('Origin',(63.45,83.5,8.));
#2089=CARTESIAN_POINT('',(65.45,83.5,9.7));
#2090=CARTESIAN_POINT('',(65.45,83.5,8.));
#2091=CARTESIAN_POINT('',(63.45,85.5,9.7));
#2092=CARTESIAN_POINT('Origin',(63.45,83.5,9.7));
#2093=CARTESIAN_POINT('',(63.45,85.5,8.));
#2094=CARTESIAN_POINT('Origin',(2.5,85.5,8.));
#2095=CARTESIAN_POINT('',(4.5,85.5,9.7));
#2096=CARTESIAN_POINT('',(1.25,85.5,9.7));
#2097=CARTESIAN_POINT('',(4.5,85.5,8.));
#2098=CARTESIAN_POINT('Origin',(65.45,74.,8.));
#2099=CARTESIAN_POINT('',(65.45,74.,9.7));
#2100=CARTESIAN_POINT('',(65.45,74.,8.));
#2101=CARTESIAN_POINT('',(65.45,37.,9.7));
#2102=CARTESIAN_POINT('Origin',(68.95,83.5,8.));
#2103=CARTESIAN_POINT('',(66.95,83.5,9.7));
#2104=CARTESIAN_POINT('Origin',(68.95,83.5,9.7));
#2105=CARTESIAN_POINT('',(66.95,83.5,8.));
#2106=CARTESIAN_POINT('Origin',(66.95,74.,8.));
#2107=CARTESIAN_POINT('',(66.95,74.,9.7));
#2108=CARTESIAN_POINT('',(66.95,37.,9.7));
#2109=CARTESIAN_POINT('',(66.95,74.,8.));
#2110=CARTESIAN_POINT('Origin',(4.5,83.5,8.));
#2111=CARTESIAN_POINT('Origin',(4.5,83.5,9.7));
#2112=CARTESIAN_POINT('Origin',(0.,0.,0.));
#2113=CARTESIAN_POINT('',(0.,50.05,9.7));
#2114=CARTESIAN_POINT('',(0.,88.,9.7));
#2115=CARTESIAN_POINT('',(0.,0.,9.7));
#2116=CARTESIAN_POINT('',(0.,88.,0.));
#2117=CARTESIAN_POINT('',(0.,88.,0.));
#2118=CARTESIAN_POINT('',(0.,0.,0.));
#2119=CARTESIAN_POINT('',(0.,0.,0.));
#2120=CARTESIAN_POINT('',(0.,0.,9.7));
#2121=CARTESIAN_POINT('',(0.,0.,0.));
#2122=CARTESIAN_POINT('',(0.,37.95,9.7));
#2123=CARTESIAN_POINT('',(0.,0.,9.7));
#2124=CARTESIAN_POINT('',(0.,37.95,7.));
#2125=CARTESIAN_POINT('',(0.,37.95,3.75));
#2126=CARTESIAN_POINT('',(0.,50.05,7.));
#2127=CARTESIAN_POINT('',(0.,18.5,7.));
#2128=CARTESIAN_POINT('',(0.,50.05,3.75));
#2129=CARTESIAN_POINT('Origin',(95.6679881274524,17.1249586159027,3.));
#2130=CARTESIAN_POINT('',(95.8381656283441,15.534034476231,3.));
#2131=CARTESIAN_POINT('',(97.2400955623437,17.4224114914298,3.));
#2132=CARTESIAN_POINT('Origin',(95.6679881274524,17.1249586159027,3.));
#2133=CARTESIAN_POINT('',(95.8381656283441,15.534034476231,3.));
#2134=CARTESIAN_POINT('',(97.2400955623437,17.4224114914298,3.));
#2135=CARTESIAN_POINT('Origin',(2.5,14.,3.));
#2136=CARTESIAN_POINT('',(99.5589743589744,20.1492437941601,3.));
#2137=CARTESIAN_POINT('Origin',(99.5,17.85,3.));
#2138=CARTESIAN_POINT('',(101.2,21.7487177379236,3.));
#2139=CARTESIAN_POINT('Origin',(99.6000000000001,21.7487177379236,3.));
#2140=CARTESIAN_POINT('',(101.2,66.2512822620764,3.));
#2141=CARTESIAN_POINT('',(101.2,15.5,3.));
#2142=CARTESIAN_POINT('',(99.5589743589744,67.85075620584,3.));
#2143=CARTESIAN_POINT('Origin',(99.6000000000001,66.2512822620764,3.));
#2144=CARTESIAN_POINT('',(97.2400955623437,70.5775885085702,3.));
#2145=CARTESIAN_POINT('Origin',(99.5,70.15,3.));
#2146=CARTESIAN_POINT('',(95.8381656283441,72.465965523769,3.));
#2147=CARTESIAN_POINT('Origin',(95.6679881274524,70.8750413840973,3.));
#2148=CARTESIAN_POINT('',(95.2,72.5,3.));
#2149=CARTESIAN_POINT('Origin',(95.2,66.5,3.));
#2150=CARTESIAN_POINT('',(11.0272052466519,72.5,3.));
#2151=CARTESIAN_POINT('',(3.2,72.5,3.));
#2152=CARTESIAN_POINT('',(9.45706976084601,70.5923076923077,3.));
#2153=CARTESIAN_POINT('Origin',(11.0272052466519,70.9,3.));
#2154=CARTESIAN_POINT('',(5.37179487179488,68.7544119486022,3.));
#2155=CARTESIAN_POINT('Origin',(7.2,70.15,3.));
#2156=CARTESIAN_POINT('Origin',(4.1,67.7835680867602,3.));
#2157=CARTESIAN_POINT('',(5.37179487179487,19.2455880513979,3.));
#2158=CARTESIAN_POINT('Origin',(4.1,20.2164319132398,3.));
#2159=CARTESIAN_POINT('',(9.45706976084601,17.4076923076923,3.));
#2160=CARTESIAN_POINT('Origin',(7.2,17.85,3.));
#2161=CARTESIAN_POINT('',(11.0272052466519,15.5,3.));
#2162=CARTESIAN_POINT('Origin',(11.0272052466519,17.1,3.));
#2163=CARTESIAN_POINT('',(95.2,15.5,3.));
#2164=CARTESIAN_POINT('',(3.2,15.5,3.));
#2165=CARTESIAN_POINT('Origin',(95.2,21.5,3.));
#2166=CARTESIAN_POINT('',(88.7,60.5,3.));
#2167=CARTESIAN_POINT('',(87.7,61.5,3.));
#2168=CARTESIAN_POINT('Origin',(87.7,60.5,3.));
#2169=CARTESIAN_POINT('',(88.7,55.5,3.));
#2170=CARTESIAN_POINT('',(88.7,54.5,3.));
#2171=CARTESIAN_POINT('',(87.7,54.5,3.));
#2172=CARTESIAN_POINT('Origin',(87.7,55.5,3.));
#2173=CARTESIAN_POINT('',(82.7,54.5,3.));
#2174=CARTESIAN_POINT('',(81.7,54.5,3.));
#2175=CARTESIAN_POINT('',(81.7,55.5,3.));
#2176=CARTESIAN_POINT('Origin',(82.7,55.5,3.));
#2177=CARTESIAN_POINT('',(81.7,60.5,3.));
#2178=CARTESIAN_POINT('',(81.7,54.5,3.));
#2179=CARTESIAN_POINT('',(82.7,61.5,3.));
#2180=CARTESIAN_POINT('Origin',(82.7,60.5,3.));
#2181=CARTESIAN_POINT('',(81.7,61.5,3.));
#2182=CARTESIAN_POINT('Origin',(99.5,17.85,3.));
#2183=CARTESIAN_POINT('',(99.5589743589744,20.1492437941601,3.));
#2184=CARTESIAN_POINT('Origin',(99.6000000000001,21.7487177379236,3.));
#2185=CARTESIAN_POINT('',(101.2,21.7487177379236,3.));
#2186=CARTESIAN_POINT('Origin',(101.2,15.5,3.));
#2187=CARTESIAN_POINT('',(101.2,66.2512822620764,3.));
#2188=CARTESIAN_POINT('Origin',(99.6000000000001,66.2512822620764,3.));
#2189=CARTESIAN_POINT('',(99.5589743589744,67.8507562058399,3.));
#2190=CARTESIAN_POINT('Origin',(99.5,70.15,3.));
#2191=CARTESIAN_POINT('',(97.2400955623437,70.5775885085702,3.));
#2192=CARTESIAN_POINT('Origin',(95.6679881274524,70.8750413840973,3.));
#2193=CARTESIAN_POINT('',(95.8381656283441,72.465965523769,3.));
#2194=CARTESIAN_POINT('Origin',(4.1,20.2164319132398,3.));
#2195=CARTESIAN_POINT('',(5.37179487179487,19.2455880513979,3.));
#2196=CARTESIAN_POINT('Origin',(11.0272052466519,17.1,3.));
#2197=CARTESIAN_POINT('',(9.45706976084601,17.4076923076923,3.));
#2198=CARTESIAN_POINT('',(11.0272052466519,15.5,3.));
#2199=CARTESIAN_POINT('Origin',(7.2,17.85,3.));
#2200=CARTESIAN_POINT('Origin',(4.1,67.7835680867602,3.));
#2201=CARTESIAN_POINT('',(5.37179487179487,68.7544119486022,3.));
#2202=CARTESIAN_POINT('Origin',(7.2,70.15,3.));
#2203=CARTESIAN_POINT('',(9.45706976084601,70.5923076923077,3.));
#2204=CARTESIAN_POINT('Origin',(11.0272052466519,70.9,3.));
#2205=CARTESIAN_POINT('',(11.0272052466519,72.5,3.));
#2206=CARTESIAN_POINT('Origin',(3.2,72.5,3.));
#2207=CARTESIAN_POINT('',(95.2,72.5,3.));
#2208=CARTESIAN_POINT('Origin',(65.45,74.,8.));
#2209=CARTESIAN_POINT('',(32.725,74.,9.7));
#2210=CARTESIAN_POINT('Origin',(0.,88.,0.));
#2211=CARTESIAN_POINT('',(116.4,88.,0.));
#2212=CARTESIAN_POINT('',(0.,88.,0.));
#2213=CARTESIAN_POINT('',(116.4,88.,9.7));
#2214=CARTESIAN_POINT('',(0.,88.,9.7));
#2215=CARTESIAN_POINT('',(116.4,88.,0.));
#2216=CARTESIAN_POINT('Origin',(116.4,0.,0.));
#2217=CARTESIAN_POINT('',(116.4,0.,0.));
#2218=CARTESIAN_POINT('',(116.4,0.,9.7));
#2219=CARTESIAN_POINT('',(116.4,0.,0.));
#2220=CARTESIAN_POINT('',(116.4,0.,0.));
#2221=CARTESIAN_POINT('',(116.4,0.,9.7));
#2222=CARTESIAN_POINT('Origin',(0.,0.,0.));
#2223=CARTESIAN_POINT('',(0.,0.,0.));
#2224=CARTESIAN_POINT('',(0.,0.,9.7));
#2225=CARTESIAN_POINT('Origin',(65.45,14.,8.));
#2226=CARTESIAN_POINT('',(32.725,14.,9.7));
#2227=CARTESIAN_POINT('Origin',(-0.1,37.95,7.5));
#2228=CARTESIAN_POINT('',(-0.1,37.95,7.));
#2229=CARTESIAN_POINT('',(-0.05,37.95,9.7));
#2230=CARTESIAN_POINT('Origin',(-0.1,37.,7.));
#2231=CARTESIAN_POINT('',(-0.1,50.05,7.));
#2232=CARTESIAN_POINT('Origin',(-0.1,50.05,7.5));
#2233=CARTESIAN_POINT('',(-0.05,50.05,9.7));
#2234=CARTESIAN_POINT('Origin',(0.,0.,9.7));
#2235=CARTESIAN_POINT('Origin',(0.,0.,0.));
#2236=CARTESIAN_POINT('',(3.,5.,0.));
#2237=CARTESIAN_POINT('Origin',(5.,5.,0.));
#2238=CARTESIAN_POINT('',(51.2,5.,0.));
#2239=CARTESIAN_POINT('Origin',(53.2,5.,0.));
#2240=CARTESIAN_POINT('',(99.4,5.,0.));
#2241=CARTESIAN_POINT('Origin',(101.4,5.,0.));
#2242=CARTESIAN_POINT('',(3.,83.,0.));
#2243=CARTESIAN_POINT('Origin',(5.,83.,0.));
#2244=CARTESIAN_POINT('',(51.2,83.,0.));
#2245=CARTESIAN_POINT('Origin',(53.2,83.,0.));
#2246=CARTESIAN_POINT('',(99.4,83.,0.));
#2247=CARTESIAN_POINT('Origin',(101.4,83.,0.));
#2248=CARTESIAN_POINT('Origin',(95.2,66.5,3.));
#2249=CARTESIAN_POINT('Origin',(3.2,15.5,3.));
#2250=CARTESIAN_POINT('',(95.2,15.5,3.));
#2251=CARTESIAN_POINT('Origin',(95.2,21.5,3.));
#2252=CARTESIAN_POINT('Origin',(5.,5.,0.));
#2253=CARTESIAN_POINT('',(3.,5.,0.));
#2254=CARTESIAN_POINT('Origin',(7.2,17.85,3.));
#2255=CARTESIAN_POINT('',(5.95,17.85,3.));
#2256=CARTESIAN_POINT('',(5.95,17.85,3.));
#2257=CARTESIAN_POINT('Origin',(7.2,17.85,3.));
#2258=CARTESIAN_POINT('Origin',(53.2,5.,0.));
#2259=CARTESIAN_POINT('',(51.2,5.,0.));
#2260=CARTESIAN_POINT('Origin',(101.4,5.,0.));
#2261=CARTESIAN_POINT('',(99.4,5.,0.));
#2262=CARTESIAN_POINT('Origin',(99.5,17.85,3.));
#2263=CARTESIAN_POINT('',(98.25,17.85,3.));
#2264=CARTESIAN_POINT('',(98.25,17.85,3.));
#2265=CARTESIAN_POINT('Origin',(99.5,17.85,3.));
#2266=CARTESIAN_POINT('Origin',(7.2,70.15,3.));
#2267=CARTESIAN_POINT('',(5.95,70.15,3.));
#2268=CARTESIAN_POINT('',(5.95,70.15,3.));
#2269=CARTESIAN_POINT('Origin',(7.2,70.15,3.));
#2270=CARTESIAN_POINT('Origin',(5.,83.,0.));
#2271=CARTESIAN_POINT('',(3.,83.,0.));
#2272=CARTESIAN_POINT('Origin',(53.2,83.,0.));
#2273=CARTESIAN_POINT('',(51.2,83.,0.));
#2274=CARTESIAN_POINT('Origin',(99.5,70.15,3.));
#2275=CARTESIAN_POINT('',(98.25,70.15,3.));
#2276=CARTESIAN_POINT('',(98.25,70.15,3.));
#2277=CARTESIAN_POINT('Origin',(99.5,70.15,3.));
#2278=CARTESIAN_POINT('Origin',(101.4,83.,0.));
#2279=CARTESIAN_POINT('',(99.4,83.,0.));
#2280=CARTESIAN_POINT('Origin',(87.7,60.5,3.));
#2281=CARTESIAN_POINT('',(87.7,61.5,7.5));
#2282=CARTESIAN_POINT('',(87.7,61.5,3.));
#2283=CARTESIAN_POINT('',(88.7,60.5,7.5));
#2284=CARTESIAN_POINT('Origin',(87.7,60.5,7.5));
#2285=CARTESIAN_POINT('',(88.7,60.5,3.));
#2286=CARTESIAN_POINT('Origin',(88.7,54.5,3.));
#2287=CARTESIAN_POINT('',(88.7,55.5,7.5));
#2288=CARTESIAN_POINT('',(88.7,54.5,7.5));
#2289=CARTESIAN_POINT('',(88.7,55.5,3.));
#2290=CARTESIAN_POINT('Origin',(87.7,55.5,3.));
#2291=CARTESIAN_POINT('',(87.7,54.5,7.5));
#2292=CARTESIAN_POINT('Origin',(87.7,55.5,7.5));
#2293=CARTESIAN_POINT('',(87.7,54.5,3.));
#2294=CARTESIAN_POINT('Origin',(81.7,54.5,3.));
#2295=CARTESIAN_POINT('',(82.7,54.5,7.5));
#2296=CARTESIAN_POINT('',(81.7,54.5,7.5));
#2297=CARTESIAN_POINT('',(82.7,54.5,3.));
#2298=CARTESIAN_POINT('Origin',(82.7,55.5,3.));
#2299=CARTESIAN_POINT('',(81.7,55.5,7.5));
#2300=CARTESIAN_POINT('Origin',(82.7,55.5,7.5));
#2301=CARTESIAN_POINT('',(81.7,55.5,3.));
#2302=CARTESIAN_POINT('Origin',(81.7,54.5,3.));
#2303=CARTESIAN_POINT('',(81.7,60.5,7.5));
#2304=CARTESIAN_POINT('',(81.7,54.5,7.5));
#2305=CARTESIAN_POINT('',(81.7,60.5,3.));
#2306=CARTESIAN_POINT('Origin',(82.7,60.5,3.));
#2307=CARTESIAN_POINT('',(82.7,61.5,7.5));
#2308=CARTESIAN_POINT('Origin',(82.7,60.5,7.5));
#2309=CARTESIAN_POINT('',(82.7,61.5,3.));
#2310=CARTESIAN_POINT('Origin',(81.7,61.5,3.));
#2311=CARTESIAN_POINT('',(81.7,61.5,7.5));
#2312=CARTESIAN_POINT('Origin',(7.2,17.85,3.));
#2313=CARTESIAN_POINT('Origin',(99.5,17.85,3.));
#2314=CARTESIAN_POINT('Origin',(7.2,70.15,3.));
#2315=CARTESIAN_POINT('Origin',(99.5,70.15,3.));
#2316=CARTESIAN_POINT('Origin',(81.7,54.5,7.5));
#2317=CARTESIAN_POINT('',(0.,0.,0.));
#2318=UNCERTAINTY_MEASURE_WITH_UNIT(LENGTH_MEASURE(0.01),#2324,
'DISTANCE_ACCURACY_VALUE',
'Maximum model space distance between geometric entities at asserted c
onnectivities');
#2319=UNCERTAINTY_MEASURE_WITH_UNIT(LENGTH_MEASURE(0.01),#2324,
'DISTANCE_ACCURACY_VALUE',
'Maximum model space distance between geometric entities at asserted c
onnectivities');
#2320=UNCERTAINTY_MEASURE_WITH_UNIT(LENGTH_MEASURE(0.01),#2324,
'DISTANCE_ACCURACY_VALUE',
'Maximum model space distance between geometric entities at asserted c
onnectivities');
#2321=(
GEOMETRIC_REPRESENTATION_CONTEXT(3)
GLOBAL_UNCERTAINTY_ASSIGNED_CONTEXT((#2318))
GLOBAL_UNIT_ASSIGNED_CONTEXT((#2324,#2326,#2327))
REPRESENTATION_CONTEXT('','3D')
);
#2322=(
GEOMETRIC_REPRESENTATION_CONTEXT(3)
GLOBAL_UNCERTAINTY_ASSIGNED_CONTEXT((#2319))
GLOBAL_UNIT_ASSIGNED_CONTEXT((#2324,#2326,#2327))
REPRESENTATION_CONTEXT('','3D')
);
#2323=(
GEOMETRIC_REPRESENTATION_CONTEXT(3)
GLOBAL_UNCERTAINTY_ASSIGNED_CONTEXT((#2320))
GLOBAL_UNIT_ASSIGNED_CONTEXT((#2324,#2326,#2327))
REPRESENTATION_CONTEXT('','3D')
);
#2324=(
LENGTH_UNIT()
NAMED_UNIT(*)
SI_UNIT(.MILLI.,.METRE.)
);
#2325=(
LENGTH_UNIT()
NAMED_UNIT(*)
SI_UNIT($,.METRE.)
);
#2326=(
NAMED_UNIT(*)
PLANE_ANGLE_UNIT()
SI_UNIT($,.RADIAN.)
);
#2327=(
NAMED_UNIT(*)
SI_UNIT($,.STERADIAN.)
SOLID_ANGLE_UNIT()
);
#2328=SHAPE_DEFINITION_REPRESENTATION(#2330,#2333);
#2329=SHAPE_DEFINITION_REPRESENTATION(#2331,#2334);
#2330=PRODUCT_DEFINITION_SHAPE('',$,#2336);
#2331=PRODUCT_DEFINITION_SHAPE('',$,#2337);
#2332=PRODUCT_DEFINITION_SHAPE($,$,#14);
#2333=SHAPE_REPRESENTATION('',(#1366,#1511),#2321);
#2334=SHAPE_REPRESENTATION('',(#1367),#2322);
#2335=PRODUCT_DEFINITION_CONTEXT('part definition',#2343,'design');
#2336=PRODUCT_DEFINITION('bottom','bottom',#2338,#2335);
#2337=PRODUCT_DEFINITION('Open CASCADE STEP translator 7.8 1',
'Open CASCADE STEP translator 7.8 1',#2339,#2335);
#2338=PRODUCT_DEFINITION_FORMATION('',$,#2345);
#2339=PRODUCT_DEFINITION_FORMATION('',$,#2346);
#2340=PRODUCT_RELATED_PRODUCT_CATEGORY('bottom','bottom',(#2345));
#2341=PRODUCT_RELATED_PRODUCT_CATEGORY(
'Open CASCADE STEP translator 7.8 1',
'Open CASCADE STEP translator 7.8 1',(#2346));
#2342=APPLICATION_PROTOCOL_DEFINITION('international standard',
'automotive_design',2009,#2343);
#2343=APPLICATION_CONTEXT(
'Core Data for Automotive Mechanical Design Process');
#2344=PRODUCT_CONTEXT('part definition',#2343,'mechanical');
#2345=PRODUCT('bottom','bottom',$,(#2344));
#2346=PRODUCT('Open CASCADE STEP translator 7.8 1',
'Open CASCADE STEP translator 7.8 1',$,(#2344));
#2347=PRESENTATION_STYLE_ASSIGNMENT((#2349));
#2348=PRESENTATION_STYLE_ASSIGNMENT((#2350));
#2349=SURFACE_STYLE_USAGE(.BOTH.,#2351);
#2350=SURFACE_STYLE_USAGE(.BOTH.,#2352);
#2351=SURFACE_SIDE_STYLE('',(#2353));
#2352=SURFACE_SIDE_STYLE('',(#2354));
#2353=SURFACE_STYLE_FILL_AREA(#2355);
#2354=SURFACE_STYLE_FILL_AREA(#2356);
#2355=FILL_AREA_STYLE('Steel - Satin',(#2357));
#2356=FILL_AREA_STYLE('Generic',(#2358));
#2357=FILL_AREA_STYLE_COLOUR('Steel - Satin',#2359);
#2358=FILL_AREA_STYLE_COLOUR('Generic',#2360);
#2359=COLOUR_RGB('Steel - Satin',0.627450980392157,0.627450980392157,0.627450980392157);
#2360=COLOUR_RGB('Generic',0.,0.,0.);
ENDSEC;
END-ISO-10303-21;
